<svg width="24" height="24" viewBox="0 0 24 24" fill="none" xmlns="http://www.w3.org/2000/svg">
<path d="M15 0.75C15 0.335786 14.6642 0 14.25 0H9.75C9.33579 0 9 0.335786 9 0.75C9 1.16421 8.66421 1.5 8.25 1.5C7.83579 1.5 7.5 1.83579 7.5 2.25V3C7.5 3.41421 7.83579 3.75 8.25 3.75H15.75C16.1642 3.75 16.5 3.41421 16.5 3V2.25C16.5 1.83579 16.1642 1.5 15.75 1.5C15.3358 1.5 15 1.16421 15 0.75Z" fill="#2C2C2C"/>
<path d="M6.12803 1.5H5.25C4.00736 1.5 3 2.50736 3 3.75V21.75C3 22.9926 4.00736 24 5.25 24H18.75C19.9926 24 21 22.9926 21 21.75V3.75C21 2.50736 19.9926 1.5 18.75 1.5H17.872C17.9549 1.73458 18 1.98702 18 2.25V3C18 4.24264 16.9926 5.25 15.75 5.25H8.25C7.00736 5.25 6 4.24264 6 3V2.25C6 1.98702 6.04512 1.73458 6.12803 1.5ZM12.75 9.75V12H15C15.4142 12 15.75 12.3358 15.75 12.75C15.75 13.1642 15.4142 13.5 15 13.5H12.75V15.75C12.75 16.1642 12.4142 16.5 12 16.5C11.5858 16.5 11.25 16.1642 11.25 15.75V13.5H9C8.58579 13.5 8.25 13.1642 8.25 12.75C8.25 12.3358 8.58579 12 9 12H11.25V9.75C11.25 9.33579 11.5858 9 12 9C12.4142 9 12.75 9.33579 12.75 9.75Z" fill="#2C2C2C"/>
</svg>
