<svg width="24" height="24" viewBox="0 0 24 24" fill="none" xmlns="http://www.w3.org/2000/svg">
<path d="M12 2.67468C10.5226 1.40479 8.38025 1.21355 6.43098 1.41016C4.15983 1.63924 1.86688 2.41861 0.439648 3.06735C0.171902 3.18906 0 3.45602 0 3.75013V20.2501C0 20.5051 0.129564 20.7427 0.343961 20.8807C0.558357 21.0188 0.82821 21.0384 1.06035 20.9329C2.38312 20.3317 4.51517 19.611 6.58152 19.4026C8.69348 19.1896 10.4662 19.5335 11.4143 20.7187C11.5567 20.8966 11.7722 21.0001 12 21.0001C12.2278 21.0001 12.4433 20.8966 12.5857 20.7187C13.5338 19.5335 15.3065 19.1896 17.4185 19.4026C19.4848 19.611 21.6169 20.3317 22.9396 20.9329C23.1718 21.0384 23.4416 21.0188 23.656 20.8807C23.8704 20.7427 24 20.5051 24 20.2501V3.75013C24 3.45602 23.8281 3.18906 23.5604 3.06735C22.1331 2.41861 19.8402 1.63924 17.569 1.41016C15.6198 1.21355 13.4774 1.40479 12 2.67468Z" fill=""/>
</svg>
