<svg width="25" height="24" viewBox="0 0 25 24" fill="none" xmlns="http://www.w3.org/2000/svg">
<path d="M0.660662 4.03604L0.720709 5.35707C0.336236 5.9176 0.13578 6.6113 0.202657 7.34695L1.16867 17.9731C1.31083 19.5369 2.62199 20.7342 4.19224 20.7342H13.5638V19.2162H4.19224C3.40711 19.2162 2.75153 18.6175 2.68045 17.8356L1.71444 7.20951C1.63362 6.32053 2.33358 5.55405 3.22622 5.55405H20.8654C21.758 5.55405 22.458 6.32053 22.3772 7.20951L21.9757 11.6261H23.4999L23.889 7.34694C24.0506 5.56899 22.6507 4.03604 20.8654 4.03604H14.8214C14.0162 4.03604 13.2439 3.71617 12.6746 3.1468L11.417 1.88923C10.8476 1.31987 10.0754 1 9.27021 1H3.6967C2.01994 1 0.660662 2.35928 0.660662 4.03604ZM9.27021 2.51802C9.67282 2.51802 10.0589 2.67795 10.3436 2.96264L11.417 4.03604H3.22622C2.86081 4.03604 2.51154 4.10026 2.1885 4.21766L2.17895 4.00738C2.19422 3.18223 2.86789 2.51802 3.6967 2.51802H9.27021Z" fill="#2C2C2C"/>
<path d="M20.3949 14.6622C20.8141 14.6622 21.1539 15.002 21.1539 15.4212V17.6982H23.4309C23.8501 17.6982 24.1899 18.038 24.1899 18.4572C24.1899 18.8764 23.8501 19.2162 23.4309 19.2162H21.1539V21.4932C21.1539 21.9124 20.8141 22.2523 20.3949 22.2523C19.9757 22.2523 19.6359 21.9124 19.6359 21.4932V19.2162H17.3589C16.9397 19.2162 16.5999 18.8764 16.5999 18.4572C16.5999 18.038 16.9397 17.6982 17.3589 17.6982H19.6359V15.4212C19.6359 15.002 19.9757 14.6622 20.3949 14.6622Z" fill="#2C2C2C"/>
</svg>
