<svg width="24" height="24" viewBox="0 0 24 24" fill="none" xmlns="http://www.w3.org/2000/svg">
<path d="M18.75 24C21.6495 24 24 21.6495 24 18.75C24 15.8505 21.6495 13.5 18.75 13.5C15.8505 13.5 13.5 15.8505 13.5 18.75C13.5 21.6495 15.8505 24 18.75 24ZM19.5 16.5V18H21C21.4142 18 21.75 18.3358 21.75 18.75C21.75 19.1642 21.4142 19.5 21 19.5H19.5V21C19.5 21.4142 19.1642 21.75 18.75 21.75C18.3358 21.75 18 21.4142 18 21V19.5H16.5C16.0858 19.5 15.75 19.1642 15.75 18.75C15.75 18.3358 16.0858 18 16.5 18H18V16.5C18 16.0858 18.3358 15.75 18.75 15.75C19.1642 15.75 19.5 16.0858 19.5 16.5Z" fill=""/>
<path d="M16.5 7.5C16.5 9.98528 14.4853 12 12 12C9.51472 12 7.5 9.98528 7.5 7.5C7.5 5.01472 9.51472 3 12 3C14.4853 3 16.5 5.01472 16.5 7.5Z" fill=""/>
<path d="M3 19.5C3 21 4.5 21 4.5 21H12.3841C12.1353 20.2962 12 19.5389 12 18.75C12 16.7195 12.8965 14.8984 14.3154 13.661C13.6156 13.5573 12.846 13.5 12 13.5C4.5 13.5 3 18 3 19.5Z" fill=""/>
</svg>
