<svg width="16" height="16" viewBox="0 0 16 16" fill="none" xmlns="http://www.w3.org/2000/svg">
<path d="M13.4983 0.794598L13.6465 0.646446C14.1179 0.175042 14.8822 0.175041 15.3536 0.646446C15.825 1.11785 15.825 1.88215 15.3536 2.35355L15.2054 2.5017C15.7315 3.0907 15.7119 3.99523 15.1465 4.56066L4.85356 14.8536C4.78948 14.9176 4.70919 14.9631 4.62128 14.9851L0.621278 15.9851C0.450891 16.0277 0.270647 15.9777 0.146457 15.8536C0.022267 15.7294 -0.0276575 15.5491 0.0149394 15.3787L1.01494 11.3787C1.03692 11.2908 1.08238 11.2105 1.14646 11.1464L10.7877 1.50518C10.5926 1.36759 10.321 1.38608 10.1465 1.56066L6.85356 4.85355C6.6583 5.04881 6.34172 5.04881 6.14646 4.85355C5.95119 4.65829 5.95119 4.34171 6.14646 4.14645L9.43935 0.853553C10.0053 0.287579 10.9111 0.268436 11.5 0.796124C12.0678 0.287418 12.9299 0.28691 13.4983 0.794598Z" fill=""/>
</svg>
