<svg width="18" height="18" viewBox="0 0 24 24" fill="none" xmlns="http://www.w3.org/2000/svg">
<path d="M12 2.67459C10.5226 1.4047 8.38025 1.21346 6.43098 1.41007C4.15983 1.63915 1.86688 2.41852 0.439648 3.06726C0.171902 3.18896 0 3.45593 0 3.75004V20.25C0 20.505 0.129564 20.7426 0.343961 20.8806C0.558357 21.0187 0.82821 21.0383 1.06035 20.9328C2.38312 20.3316 4.51517 19.6109 6.58152 19.4025C8.69348 19.1895 10.4662 19.5334 11.4143 20.7186C11.5567 20.8965 11.7722 21 12 21C12.2278 21 12.4433 20.8965 12.5857 20.7186C13.5338 19.5334 15.3065 19.1895 17.4185 19.4025C19.4848 19.6109 21.6169 20.3316 22.9396 20.9328C23.1718 21.0383 23.4416 21.0187 23.656 20.8806C23.8704 20.7426 24 20.505 24 20.25V3.75004C24 3.45593 23.8281 3.18896 23.5604 3.06726C22.1331 2.41852 19.8402 1.63915 17.569 1.41007C15.6198 1.21346 13.4774 1.4047 12 2.67459Z" fill=""/>
</svg>
