<svg width="18" height="18" viewBox="0 0 24 24" fill="none" xmlns="http://www.w3.org/2000/svg">
<path d="M0 6C0 4.34315 1.34315 3 3 3H21C22.6569 3 24 4.34315 24 6V18C24 19.6569 22.6569 21 21 21H3C1.34315 21 0 19.6569 0 18V6ZM13.5 8.25C13.5 8.66421 13.8358 9 14.25 9H20.25C20.6642 9 21 8.66421 21 8.25C21 7.83579 20.6642 7.5 20.25 7.5H14.25C13.8358 7.5 13.5 7.83579 13.5 8.25ZM13.5 12C13.5 12.4142 13.8358 12.75 14.25 12.75H20.25C20.6642 12.75 21 12.4142 21 12C21 11.5858 20.6642 11.25 20.25 11.25H14.25C13.8358 11.25 13.5 11.5858 13.5 12ZM15 15.75C15 16.1642 15.3358 16.5 15.75 16.5H20.25C20.6642 16.5 21 16.1642 21 15.75C21 15.3358 20.6642 15 20.25 15H15.75C15.3358 15 15 15.3358 15 15.75ZM13.5 18.75C13.5 15.8505 10.8137 13.5 7.49998 13.5C4.37051 13.5 1.80063 15.5964 1.52454 18.2718C1.65241 18.9705 2.26435 19.5 2.99998 19.5H13.4392C13.4793 19.255 13.5 19.0046 13.5 18.75ZM10.5 9C10.5 7.34315 9.15683 6 7.49998 6C5.84312 6 4.49998 7.34315 4.49998 9C4.49998 10.6569 5.84312 12 7.49998 12C9.15683 12 10.5 10.6569 10.5 9Z" fill=""/>
</svg>
