<svg width="1709" height="1117" viewBox="0 0 1709 1117" fill="none" xmlns="http://www.w3.org/2000/svg">
<g clip-path="url(#clip0_26_1773)">
<path d="M57.1661 27.6323C60.1846 27.6323 62.6317 25.1853 62.6317 22.1667C62.6317 19.1481 60.1846 16.701 57.1661 16.701C54.1475 16.701 51.7004 19.1481 51.7004 22.1667C51.7004 25.1853 54.1475 27.6323 57.1661 27.6323Z" fill="#202020"/>
<path d="M154.333 27.6323C157.351 27.6323 159.798 25.1853 159.798 22.1667C159.798 19.1481 157.351 16.701 154.333 16.701C151.314 16.701 148.867 19.1481 148.867 22.1667C148.867 25.1853 151.314 27.6323 154.333 27.6323Z" fill="#181818"/>
<path d="M251.5 27.6323C254.519 27.6323 256.966 25.1853 256.966 22.1667C256.966 19.1481 254.519 16.701 251.5 16.701C248.482 16.701 246.035 19.1481 246.035 22.1667C246.035 25.1853 248.482 27.6323 251.5 27.6323Z" fill="#202020"/>
<path d="M348.667 27.6323C351.685 27.6323 354.132 25.1853 354.132 22.1667C354.132 19.1481 351.685 16.701 348.667 16.701C345.648 16.701 343.201 19.1481 343.201 22.1667C343.201 25.1853 345.648 27.6323 348.667 27.6323Z" fill="#181818"/>
<path d="M445.833 27.6323C448.852 27.6323 451.299 25.1853 451.299 22.1667C451.299 19.1481 448.852 16.701 445.833 16.701C442.815 16.701 440.368 19.1481 440.368 22.1667C440.368 25.1853 442.815 27.6323 445.833 27.6323Z" fill="#202020"/>
<path d="M542.999 27.6323C546.018 27.6323 548.465 25.1853 548.465 22.1667C548.465 19.1481 546.018 16.701 542.999 16.701C539.981 16.701 537.534 19.1481 537.534 22.1667C537.534 25.1853 539.981 27.6323 542.999 27.6323Z" fill="#181818"/>
<path d="M640.167 27.6323C643.186 27.6323 645.633 25.1853 645.633 22.1667C645.633 19.1481 643.186 16.701 640.167 16.701C637.148 16.701 634.701 19.1481 634.701 22.1667C634.701 25.1853 637.148 27.6323 640.167 27.6323Z" fill="#202020"/>
<path d="M737.333 27.6323C740.352 27.6323 742.799 25.1853 742.799 22.1667C742.799 19.1481 740.352 16.701 737.333 16.701C734.315 16.701 731.868 19.1481 731.868 22.1667C731.868 25.1853 734.315 27.6323 737.333 27.6323Z" fill="#181818"/>
<path d="M834.5 27.6323C837.518 27.6323 839.965 25.1853 839.965 22.1667C839.965 19.1481 837.518 16.701 834.5 16.701C831.481 16.701 829.034 19.1481 829.034 22.1667C829.034 25.1853 831.481 27.6323 834.5 27.6323Z" fill="#202020"/>
<path d="M931.666 27.6323C934.685 27.6323 937.132 25.1853 937.132 22.1667C937.132 19.1481 934.685 16.701 931.666 16.701C928.647 16.701 926.2 19.1481 926.2 22.1667C926.2 25.1853 928.647 27.6323 931.666 27.6323Z" fill="#181818"/>
<path d="M1028.83 27.6323C1031.85 27.6323 1034.3 25.1853 1034.3 22.1667C1034.3 19.1481 1031.85 16.701 1028.83 16.701C1025.81 16.701 1023.37 19.1481 1023.37 22.1667C1023.37 25.1853 1025.81 27.6323 1028.83 27.6323Z" fill="#202020"/>
<path d="M1126 27.6323C1129.02 27.6323 1131.47 25.1853 1131.47 22.1667C1131.47 19.1481 1129.02 16.701 1126 16.701C1122.98 16.701 1120.53 19.1481 1120.53 22.1667C1120.53 25.1853 1122.98 27.6323 1126 27.6323Z" fill="#181818"/>
<path d="M1223.17 27.6323C1226.19 27.6323 1228.63 25.1853 1228.63 22.1667C1228.63 19.1481 1226.19 16.701 1223.17 16.701C1220.15 16.701 1217.7 19.1481 1217.7 22.1667C1217.7 25.1853 1220.15 27.6323 1223.17 27.6323Z" fill="#202020"/>
<path d="M1320.33 27.6323C1323.35 27.6323 1325.8 25.1853 1325.8 22.1667C1325.8 19.1481 1323.35 16.701 1320.33 16.701C1317.31 16.701 1314.87 19.1481 1314.87 22.1667C1314.87 25.1853 1317.31 27.6323 1320.33 27.6323Z" fill="#181818"/>
<path d="M1417.5 27.6323C1420.52 27.6323 1422.96 25.1853 1422.96 22.1667C1422.96 19.1481 1420.52 16.701 1417.5 16.701C1414.48 16.701 1412.03 19.1481 1412.03 22.1667C1412.03 25.1853 1414.48 27.6323 1417.5 27.6323Z" fill="#202020"/>
<path d="M1514.67 27.6323C1517.69 27.6323 1520.13 25.1853 1520.13 22.1667C1520.13 19.1481 1517.69 16.701 1514.67 16.701C1511.65 16.701 1509.2 19.1481 1509.2 22.1667C1509.2 25.1853 1511.65 27.6323 1514.67 27.6323Z" fill="#181818"/>
<path d="M1611.83 27.6323C1614.85 27.6323 1617.3 25.1853 1617.3 22.1667C1617.3 19.1481 1614.85 16.701 1611.83 16.701C1608.81 16.701 1606.37 19.1481 1606.37 22.1667C1606.37 25.1853 1608.81 27.6323 1611.83 27.6323Z" fill="#202020"/>
<path d="M1709 27.6323C1712.02 27.6323 1714.47 25.1853 1714.47 22.1667C1714.47 19.1481 1712.02 16.701 1709 16.701C1705.98 16.701 1703.53 19.1481 1703.53 22.1667C1703.53 25.1853 1705.98 27.6323 1709 27.6323Z" fill="#181818"/>
<path d="M57.1661 124.799C60.1846 124.799 62.6317 122.352 62.6317 119.333C62.6317 116.315 60.1846 113.868 57.1661 113.868C54.1475 113.868 51.7004 116.315 51.7004 119.333C51.7004 122.352 54.1475 124.799 57.1661 124.799Z" fill="#181818"/>
<path d="M154.333 124.799C157.351 124.799 159.798 122.352 159.798 119.333C159.798 116.315 157.351 113.868 154.333 113.868C151.314 113.868 148.867 116.315 148.867 119.333C148.867 122.352 151.314 124.799 154.333 124.799Z" fill="#202020"/>
<path d="M251.5 124.799C254.519 124.799 256.966 122.352 256.966 119.333C256.966 116.315 254.519 113.868 251.5 113.868C248.482 113.868 246.035 116.315 246.035 119.333C246.035 122.352 248.482 124.799 251.5 124.799Z" fill="#181818"/>
<path d="M348.667 124.799C351.685 124.799 354.132 122.352 354.132 119.333C354.132 116.315 351.685 113.868 348.667 113.868C345.648 113.868 343.201 116.315 343.201 119.333C343.201 122.352 345.648 124.799 348.667 124.799Z" fill="#202020"/>
<path d="M445.833 124.799C448.852 124.799 451.299 122.352 451.299 119.333C451.299 116.315 448.852 113.868 445.833 113.868C442.815 113.868 440.368 116.315 440.368 119.333C440.368 122.352 442.815 124.799 445.833 124.799Z" fill="#181818"/>
<path d="M542.999 124.799C546.018 124.799 548.465 122.352 548.465 119.333C548.465 116.315 546.018 113.868 542.999 113.868C539.981 113.868 537.534 116.315 537.534 119.333C537.534 122.352 539.981 124.799 542.999 124.799Z" fill="#202020"/>
<path d="M640.167 124.799C643.186 124.799 645.633 122.352 645.633 119.333C645.633 116.315 643.186 113.868 640.167 113.868C637.148 113.868 634.701 116.315 634.701 119.333C634.701 122.352 637.148 124.799 640.167 124.799Z" fill="#181818"/>
<path d="M737.333 124.799C740.352 124.799 742.799 122.352 742.799 119.333C742.799 116.315 740.352 113.868 737.333 113.868C734.315 113.868 731.868 116.315 731.868 119.333C731.868 122.352 734.315 124.799 737.333 124.799Z" fill="#202020"/>
<path d="M834.5 124.799C837.518 124.799 839.965 122.352 839.965 119.333C839.965 116.315 837.518 113.868 834.5 113.868C831.481 113.868 829.034 116.315 829.034 119.333C829.034 122.352 831.481 124.799 834.5 124.799Z" fill="#181818"/>
<path d="M931.666 124.799C934.685 124.799 937.132 122.352 937.132 119.333C937.132 116.315 934.685 113.868 931.666 113.868C928.647 113.868 926.2 116.315 926.2 119.333C926.2 122.352 928.647 124.799 931.666 124.799Z" fill="#202020"/>
<path d="M1028.83 124.799C1031.85 124.799 1034.3 122.352 1034.3 119.333C1034.3 116.315 1031.85 113.868 1028.83 113.868C1025.81 113.868 1023.37 116.315 1023.37 119.333C1023.37 122.352 1025.81 124.799 1028.83 124.799Z" fill="#181818"/>
<path d="M1126 124.799C1129.02 124.799 1131.47 122.352 1131.47 119.333C1131.47 116.315 1129.02 113.868 1126 113.868C1122.98 113.868 1120.53 116.315 1120.53 119.333C1120.53 122.352 1122.98 124.799 1126 124.799Z" fill="#202020"/>
<path d="M1223.17 124.799C1226.19 124.799 1228.63 122.352 1228.63 119.333C1228.63 116.315 1226.19 113.868 1223.17 113.868C1220.15 113.868 1217.7 116.315 1217.7 119.333C1217.7 122.352 1220.15 124.799 1223.17 124.799Z" fill="#181818"/>
<path d="M1320.33 124.799C1323.35 124.799 1325.8 122.352 1325.8 119.333C1325.8 116.315 1323.35 113.868 1320.33 113.868C1317.31 113.868 1314.87 116.315 1314.87 119.333C1314.87 122.352 1317.31 124.799 1320.33 124.799Z" fill="#202020"/>
<path d="M1417.5 124.799C1420.52 124.799 1422.96 122.352 1422.96 119.333C1422.96 116.315 1420.52 113.868 1417.5 113.868C1414.48 113.868 1412.03 116.315 1412.03 119.333C1412.03 122.352 1414.48 124.799 1417.5 124.799Z" fill="#181818"/>
<path d="M1514.67 124.799C1517.69 124.799 1520.13 122.352 1520.13 119.333C1520.13 116.315 1517.69 113.868 1514.67 113.868C1511.65 113.868 1509.2 116.315 1509.2 119.333C1509.2 122.352 1511.65 124.799 1514.67 124.799Z" fill="#202020"/>
<path d="M1611.83 124.799C1614.85 124.799 1617.3 122.352 1617.3 119.333C1617.3 116.315 1614.85 113.868 1611.83 113.868C1608.81 113.868 1606.37 116.315 1606.37 119.333C1606.37 122.352 1608.81 124.799 1611.83 124.799Z" fill="#181818"/>
<path d="M1709 124.799C1712.02 124.799 1714.47 122.352 1714.47 119.333C1714.47 116.315 1712.02 113.868 1709 113.868C1705.98 113.868 1703.53 116.315 1703.53 119.333C1703.53 122.352 1705.98 124.799 1709 124.799Z" fill="#202020"/>
<path d="M57.1661 221.966C60.1846 221.966 62.6317 219.519 62.6317 216.5C62.6317 213.481 60.1846 211.034 57.1661 211.034C54.1475 211.034 51.7004 213.481 51.7004 216.5C51.7004 219.519 54.1475 221.966 57.1661 221.966Z" fill="#202020"/>
<path d="M154.333 221.966C157.351 221.966 159.798 219.519 159.798 216.5C159.798 213.481 157.351 211.034 154.333 211.034C151.314 211.034 148.867 213.481 148.867 216.5C148.867 219.519 151.314 221.966 154.333 221.966Z" fill="#181818"/>
<path d="M251.5 221.966C254.519 221.966 256.966 219.519 256.966 216.5C256.966 213.481 254.519 211.034 251.5 211.034C248.482 211.034 246.035 213.481 246.035 216.5C246.035 219.519 248.482 221.966 251.5 221.966Z" fill="#202020"/>
<path d="M348.667 221.966C351.685 221.966 354.132 219.519 354.132 216.5C354.132 213.481 351.685 211.034 348.667 211.034C345.648 211.034 343.201 213.481 343.201 216.5C343.201 219.519 345.648 221.966 348.667 221.966Z" fill="#181818"/>
<path d="M445.833 221.966C448.852 221.966 451.299 219.519 451.299 216.5C451.299 213.481 448.852 211.034 445.833 211.034C442.815 211.034 440.368 213.481 440.368 216.5C440.368 219.519 442.815 221.966 445.833 221.966Z" fill="#202020"/>
<path d="M542.999 221.966C546.018 221.966 548.465 219.519 548.465 216.5C548.465 213.481 546.018 211.034 542.999 211.034C539.981 211.034 537.534 213.481 537.534 216.5C537.534 219.519 539.981 221.966 542.999 221.966Z" fill="#181818"/>
<path d="M640.167 221.966C643.186 221.966 645.633 219.519 645.633 216.5C645.633 213.481 643.186 211.034 640.167 211.034C637.148 211.034 634.701 213.481 634.701 216.5C634.701 219.519 637.148 221.966 640.167 221.966Z" fill="#202020"/>
<path d="M737.333 221.966C740.352 221.966 742.799 219.519 742.799 216.5C742.799 213.481 740.352 211.034 737.333 211.034C734.315 211.034 731.868 213.481 731.868 216.5C731.868 219.519 734.315 221.966 737.333 221.966Z" fill="#181818"/>
<path d="M834.5 221.966C837.518 221.966 839.965 219.519 839.965 216.5C839.965 213.481 837.518 211.034 834.5 211.034C831.481 211.034 829.034 213.481 829.034 216.5C829.034 219.519 831.481 221.966 834.5 221.966Z" fill="#202020"/>
<path d="M931.666 221.966C934.685 221.966 937.132 219.519 937.132 216.5C937.132 213.481 934.685 211.034 931.666 211.034C928.647 211.034 926.2 213.481 926.2 216.5C926.2 219.519 928.647 221.966 931.666 221.966Z" fill="#181818"/>
<path d="M1028.83 221.966C1031.85 221.966 1034.3 219.519 1034.3 216.5C1034.3 213.481 1031.85 211.034 1028.83 211.034C1025.81 211.034 1023.37 213.481 1023.37 216.5C1023.37 219.519 1025.81 221.966 1028.83 221.966Z" fill="#202020"/>
<path d="M1126 221.966C1129.02 221.966 1131.47 219.519 1131.47 216.5C1131.47 213.481 1129.02 211.034 1126 211.034C1122.98 211.034 1120.53 213.481 1120.53 216.5C1120.53 219.519 1122.98 221.966 1126 221.966Z" fill="#181818"/>
<path d="M1223.17 221.966C1226.19 221.966 1228.63 219.519 1228.63 216.5C1228.63 213.481 1226.19 211.034 1223.17 211.034C1220.15 211.034 1217.7 213.481 1217.7 216.5C1217.7 219.519 1220.15 221.966 1223.17 221.966Z" fill="#202020"/>
<path d="M1320.33 221.966C1323.35 221.966 1325.8 219.519 1325.8 216.5C1325.8 213.481 1323.35 211.034 1320.33 211.034C1317.31 211.034 1314.87 213.481 1314.87 216.5C1314.87 219.519 1317.31 221.966 1320.33 221.966Z" fill="#181818"/>
<path d="M1417.5 221.966C1420.52 221.966 1422.96 219.519 1422.96 216.5C1422.96 213.481 1420.52 211.034 1417.5 211.034C1414.48 211.034 1412.03 213.481 1412.03 216.5C1412.03 219.519 1414.48 221.966 1417.5 221.966Z" fill="#202020"/>
<path d="M1514.67 221.966C1517.69 221.966 1520.13 219.519 1520.13 216.5C1520.13 213.481 1517.69 211.034 1514.67 211.034C1511.65 211.034 1509.2 213.481 1509.2 216.5C1509.2 219.519 1511.65 221.966 1514.67 221.966Z" fill="#181818"/>
<path d="M1611.83 221.966C1614.85 221.966 1617.3 219.519 1617.3 216.5C1617.3 213.481 1614.85 211.034 1611.83 211.034C1608.81 211.034 1606.37 213.481 1606.37 216.5C1606.37 219.519 1608.81 221.966 1611.83 221.966Z" fill="#202020"/>
<path d="M1709 221.966C1712.02 221.966 1714.47 219.519 1714.47 216.5C1714.47 213.481 1712.02 211.034 1709 211.034C1705.98 211.034 1703.53 213.481 1703.53 216.5C1703.53 219.519 1705.98 221.966 1709 221.966Z" fill="#181818"/>
<path d="M57.1661 319.132C60.1846 319.132 62.6317 316.685 62.6317 313.667C62.6317 310.648 60.1846 308.201 57.1661 308.201C54.1475 308.201 51.7004 310.648 51.7004 313.667C51.7004 316.685 54.1475 319.132 57.1661 319.132Z" fill="#181818"/>
<path d="M154.333 319.132C157.351 319.132 159.798 316.685 159.798 313.667C159.798 310.648 157.351 308.201 154.333 308.201C151.314 308.201 148.867 310.648 148.867 313.667C148.867 316.685 151.314 319.132 154.333 319.132Z" fill="#202020"/>
<path d="M251.5 319.132C254.519 319.132 256.966 316.685 256.966 313.667C256.966 310.648 254.519 308.201 251.5 308.201C248.482 308.201 246.035 310.648 246.035 313.667C246.035 316.685 248.482 319.132 251.5 319.132Z" fill="#181818"/>
<path d="M348.667 319.132C351.685 319.132 354.132 316.685 354.132 313.667C354.132 310.648 351.685 308.201 348.667 308.201C345.648 308.201 343.201 310.648 343.201 313.667C343.201 316.685 345.648 319.132 348.667 319.132Z" fill="#202020"/>
<path d="M445.833 319.132C448.852 319.132 451.299 316.685 451.299 313.667C451.299 310.648 448.852 308.201 445.833 308.201C442.815 308.201 440.368 310.648 440.368 313.667C440.368 316.685 442.815 319.132 445.833 319.132Z" fill="#181818"/>
<path d="M542.999 319.132C546.018 319.132 548.465 316.685 548.465 313.667C548.465 310.648 546.018 308.201 542.999 308.201C539.981 308.201 537.534 310.648 537.534 313.667C537.534 316.685 539.981 319.132 542.999 319.132Z" fill="#202020"/>
<path d="M640.167 319.132C643.186 319.132 645.633 316.685 645.633 313.667C645.633 310.648 643.186 308.201 640.167 308.201C637.148 308.201 634.701 310.648 634.701 313.667C634.701 316.685 637.148 319.132 640.167 319.132Z" fill="#181818"/>
<path d="M737.333 319.132C740.352 319.132 742.799 316.685 742.799 313.667C742.799 310.648 740.352 308.201 737.333 308.201C734.315 308.201 731.868 310.648 731.868 313.667C731.868 316.685 734.315 319.132 737.333 319.132Z" fill="#202020"/>
<path d="M834.5 319.132C837.518 319.132 839.965 316.685 839.965 313.667C839.965 310.648 837.518 308.201 834.5 308.201C831.481 308.201 829.034 310.648 829.034 313.667C829.034 316.685 831.481 319.132 834.5 319.132Z" fill="#181818"/>
<path d="M931.666 319.132C934.685 319.132 937.132 316.685 937.132 313.667C937.132 310.648 934.685 308.201 931.666 308.201C928.647 308.201 926.2 310.648 926.2 313.667C926.2 316.685 928.647 319.132 931.666 319.132Z" fill="#202020"/>
<path d="M1028.83 319.132C1031.85 319.132 1034.3 316.685 1034.3 313.667C1034.3 310.648 1031.85 308.201 1028.83 308.201C1025.81 308.201 1023.37 310.648 1023.37 313.667C1023.37 316.685 1025.81 319.132 1028.83 319.132Z" fill="#181818"/>
<path d="M1126 319.132C1129.02 319.132 1131.47 316.685 1131.47 313.667C1131.47 310.648 1129.02 308.201 1126 308.201C1122.98 308.201 1120.53 310.648 1120.53 313.667C1120.53 316.685 1122.98 319.132 1126 319.132Z" fill="#202020"/>
<path d="M1223.17 319.132C1226.19 319.132 1228.63 316.685 1228.63 313.667C1228.63 310.648 1226.19 308.201 1223.17 308.201C1220.15 308.201 1217.7 310.648 1217.7 313.667C1217.7 316.685 1220.15 319.132 1223.17 319.132Z" fill="#181818"/>
<path d="M1320.33 319.132C1323.35 319.132 1325.8 316.685 1325.8 313.667C1325.8 310.648 1323.35 308.201 1320.33 308.201C1317.31 308.201 1314.87 310.648 1314.87 313.667C1314.87 316.685 1317.31 319.132 1320.33 319.132Z" fill="#202020"/>
<path d="M1417.5 319.132C1420.52 319.132 1422.96 316.685 1422.96 313.667C1422.96 310.648 1420.52 308.201 1417.5 308.201C1414.48 308.201 1412.03 310.648 1412.03 313.667C1412.03 316.685 1414.48 319.132 1417.5 319.132Z" fill="#181818"/>
<path d="M1514.67 319.132C1517.69 319.132 1520.13 316.685 1520.13 313.667C1520.13 310.648 1517.69 308.201 1514.67 308.201C1511.65 308.201 1509.2 310.648 1509.2 313.667C1509.2 316.685 1511.65 319.132 1514.67 319.132Z" fill="#202020"/>
<path d="M1611.83 319.132C1614.85 319.132 1617.3 316.685 1617.3 313.667C1617.3 310.648 1614.85 308.201 1611.83 308.201C1608.81 308.201 1606.37 310.648 1606.37 313.667C1606.37 316.685 1608.81 319.132 1611.83 319.132Z" fill="#181818"/>
<path d="M1709 319.132C1712.02 319.132 1714.47 316.685 1714.47 313.667C1714.47 310.648 1712.02 308.201 1709 308.201C1705.98 308.201 1703.53 310.648 1703.53 313.667C1703.53 316.685 1705.98 319.132 1709 319.132Z" fill="#202020"/>
<path d="M57.1661 416.299C60.1846 416.299 62.6317 413.852 62.6317 410.833C62.6317 407.815 60.1846 405.368 57.1661 405.368C54.1475 405.368 51.7004 407.815 51.7004 410.833C51.7004 413.852 54.1475 416.299 57.1661 416.299Z" fill="#202020"/>
<path d="M154.333 416.299C157.351 416.299 159.798 413.852 159.798 410.833C159.798 407.815 157.351 405.368 154.333 405.368C151.314 405.368 148.867 407.815 148.867 410.833C148.867 413.852 151.314 416.299 154.333 416.299Z" fill="#181818"/>
<path d="M251.5 416.299C254.519 416.299 256.966 413.852 256.966 410.833C256.966 407.815 254.519 405.368 251.5 405.368C248.482 405.368 246.035 407.815 246.035 410.833C246.035 413.852 248.482 416.299 251.5 416.299Z" fill="#202020"/>
<path d="M348.667 416.299C351.685 416.299 354.132 413.852 354.132 410.833C354.132 407.815 351.685 405.368 348.667 405.368C345.648 405.368 343.201 407.815 343.201 410.833C343.201 413.852 345.648 416.299 348.667 416.299Z" fill="#181818"/>
<path d="M445.833 416.299C448.852 416.299 451.299 413.852 451.299 410.833C451.299 407.815 448.852 405.368 445.833 405.368C442.815 405.368 440.368 407.815 440.368 410.833C440.368 413.852 442.815 416.299 445.833 416.299Z" fill="#202020"/>
<path d="M542.999 416.299C546.018 416.299 548.465 413.852 548.465 410.833C548.465 407.815 546.018 405.368 542.999 405.368C539.981 405.368 537.534 407.815 537.534 410.833C537.534 413.852 539.981 416.299 542.999 416.299Z" fill="#181818"/>
<path d="M640.167 416.299C643.186 416.299 645.633 413.852 645.633 410.833C645.633 407.815 643.186 405.368 640.167 405.368C637.148 405.368 634.701 407.815 634.701 410.833C634.701 413.852 637.148 416.299 640.167 416.299Z" fill="#202020"/>
<path d="M737.333 416.299C740.352 416.299 742.799 413.852 742.799 410.833C742.799 407.815 740.352 405.368 737.333 405.368C734.315 405.368 731.868 407.815 731.868 410.833C731.868 413.852 734.315 416.299 737.333 416.299Z" fill="#181818"/>
<path d="M834.5 416.299C837.518 416.299 839.965 413.852 839.965 410.833C839.965 407.815 837.518 405.368 834.5 405.368C831.481 405.368 829.034 407.815 829.034 410.833C829.034 413.852 831.481 416.299 834.5 416.299Z" fill="#202020"/>
<path d="M931.666 416.299C934.685 416.299 937.132 413.852 937.132 410.833C937.132 407.815 934.685 405.368 931.666 405.368C928.647 405.368 926.2 407.815 926.2 410.833C926.2 413.852 928.647 416.299 931.666 416.299Z" fill="#181818"/>
<path d="M1028.83 416.299C1031.85 416.299 1034.3 413.852 1034.3 410.833C1034.3 407.815 1031.85 405.368 1028.83 405.368C1025.81 405.368 1023.37 407.815 1023.37 410.833C1023.37 413.852 1025.81 416.299 1028.83 416.299Z" fill="#202020"/>
<path d="M1126 416.299C1129.02 416.299 1131.47 413.852 1131.47 410.833C1131.47 407.815 1129.02 405.368 1126 405.368C1122.98 405.368 1120.53 407.815 1120.53 410.833C1120.53 413.852 1122.98 416.299 1126 416.299Z" fill="#181818"/>
<path d="M1223.17 416.299C1226.19 416.299 1228.63 413.852 1228.63 410.833C1228.63 407.815 1226.19 405.368 1223.17 405.368C1220.15 405.368 1217.7 407.815 1217.7 410.833C1217.7 413.852 1220.15 416.299 1223.17 416.299Z" fill="#202020"/>
<path d="M1320.33 416.299C1323.35 416.299 1325.8 413.852 1325.8 410.833C1325.8 407.815 1323.35 405.368 1320.33 405.368C1317.31 405.368 1314.87 407.815 1314.87 410.833C1314.87 413.852 1317.31 416.299 1320.33 416.299Z" fill="#181818"/>
<path d="M1417.5 416.299C1420.52 416.299 1422.96 413.852 1422.96 410.833C1422.96 407.815 1420.52 405.368 1417.5 405.368C1414.48 405.368 1412.03 407.815 1412.03 410.833C1412.03 413.852 1414.48 416.299 1417.5 416.299Z" fill="#202020"/>
<path d="M1514.67 416.299C1517.69 416.299 1520.13 413.852 1520.13 410.833C1520.13 407.815 1517.69 405.368 1514.67 405.368C1511.65 405.368 1509.2 407.815 1509.2 410.833C1509.2 413.852 1511.65 416.299 1514.67 416.299Z" fill="#181818"/>
<path d="M1611.83 416.299C1614.85 416.299 1617.3 413.852 1617.3 410.833C1617.3 407.815 1614.85 405.368 1611.83 405.368C1608.81 405.368 1606.37 407.815 1606.37 410.833C1606.37 413.852 1608.81 416.299 1611.83 416.299Z" fill="#202020"/>
<path d="M1709 416.299C1712.02 416.299 1714.47 413.852 1714.47 410.833C1714.47 407.815 1712.02 405.368 1709 405.368C1705.98 405.368 1703.53 407.815 1703.53 410.833C1703.53 413.852 1705.98 416.299 1709 416.299Z" fill="#181818"/>
<path d="M57.1661 513.466C60.1846 513.466 62.6317 511.019 62.6317 508C62.6317 504.981 60.1846 502.534 57.1661 502.534C54.1475 502.534 51.7004 504.981 51.7004 508C51.7004 511.019 54.1475 513.466 57.1661 513.466Z" fill="#181818"/>
<path d="M154.333 513.466C157.351 513.466 159.798 511.019 159.798 508C159.798 504.981 157.351 502.534 154.333 502.534C151.314 502.534 148.867 504.981 148.867 508C148.867 511.019 151.314 513.466 154.333 513.466Z" fill="#202020"/>
<path d="M251.5 513.466C254.519 513.466 256.966 511.019 256.966 508C256.966 504.981 254.519 502.534 251.5 502.534C248.482 502.534 246.035 504.981 246.035 508C246.035 511.019 248.482 513.466 251.5 513.466Z" fill="#181818"/>
<path d="M348.667 513.466C351.685 513.466 354.132 511.019 354.132 508C354.132 504.981 351.685 502.534 348.667 502.534C345.648 502.534 343.201 504.981 343.201 508C343.201 511.019 345.648 513.466 348.667 513.466Z" fill="#202020"/>
<path d="M445.833 513.466C448.852 513.466 451.299 511.019 451.299 508C451.299 504.981 448.852 502.534 445.833 502.534C442.815 502.534 440.368 504.981 440.368 508C440.368 511.019 442.815 513.466 445.833 513.466Z" fill="#181818"/>
<path d="M542.999 513.466C546.018 513.466 548.465 511.019 548.465 508C548.465 504.981 546.018 502.534 542.999 502.534C539.981 502.534 537.534 504.981 537.534 508C537.534 511.019 539.981 513.466 542.999 513.466Z" fill="#202020"/>
<path d="M640.167 513.466C643.186 513.466 645.633 511.019 645.633 508C645.633 504.981 643.186 502.534 640.167 502.534C637.148 502.534 634.701 504.981 634.701 508C634.701 511.019 637.148 513.466 640.167 513.466Z" fill="#181818"/>
<path d="M737.333 513.466C740.352 513.466 742.799 511.019 742.799 508C742.799 504.981 740.352 502.534 737.333 502.534C734.315 502.534 731.868 504.981 731.868 508C731.868 511.019 734.315 513.466 737.333 513.466Z" fill="#202020"/>
<path d="M834.5 513.466C837.518 513.466 839.965 511.019 839.965 508C839.965 504.981 837.518 502.534 834.5 502.534C831.481 502.534 829.034 504.981 829.034 508C829.034 511.019 831.481 513.466 834.5 513.466Z" fill="#181818"/>
<path d="M931.666 513.466C934.685 513.466 937.132 511.019 937.132 508C937.132 504.981 934.685 502.534 931.666 502.534C928.647 502.534 926.2 504.981 926.2 508C926.2 511.019 928.647 513.466 931.666 513.466Z" fill="#202020"/>
<path d="M1028.83 513.466C1031.85 513.466 1034.3 511.019 1034.3 508C1034.3 504.981 1031.85 502.534 1028.83 502.534C1025.81 502.534 1023.37 504.981 1023.37 508C1023.37 511.019 1025.81 513.466 1028.83 513.466Z" fill="#181818"/>
<path d="M1126 513.466C1129.02 513.466 1131.47 511.019 1131.47 508C1131.47 504.981 1129.02 502.534 1126 502.534C1122.98 502.534 1120.53 504.981 1120.53 508C1120.53 511.019 1122.98 513.466 1126 513.466Z" fill="#202020"/>
<path d="M1223.17 513.466C1226.19 513.466 1228.63 511.019 1228.63 508C1228.63 504.981 1226.19 502.534 1223.17 502.534C1220.15 502.534 1217.7 504.981 1217.7 508C1217.7 511.019 1220.15 513.466 1223.17 513.466Z" fill="#181818"/>
<path d="M1320.33 513.466C1323.35 513.466 1325.8 511.019 1325.8 508C1325.8 504.981 1323.35 502.534 1320.33 502.534C1317.31 502.534 1314.87 504.981 1314.87 508C1314.87 511.019 1317.31 513.466 1320.33 513.466Z" fill="#202020"/>
<path d="M1417.5 513.466C1420.52 513.466 1422.96 511.019 1422.96 508C1422.96 504.981 1420.52 502.534 1417.5 502.534C1414.48 502.534 1412.03 504.981 1412.03 508C1412.03 511.019 1414.48 513.466 1417.5 513.466Z" fill="#181818"/>
<path d="M1514.67 513.466C1517.69 513.466 1520.13 511.019 1520.13 508C1520.13 504.981 1517.69 502.534 1514.67 502.534C1511.65 502.534 1509.2 504.981 1509.2 508C1509.2 511.019 1511.65 513.466 1514.67 513.466Z" fill="#202020"/>
<path d="M1611.83 513.466C1614.85 513.466 1617.3 511.019 1617.3 508C1617.3 504.981 1614.85 502.534 1611.83 502.534C1608.81 502.534 1606.37 504.981 1606.37 508C1606.37 511.019 1608.81 513.466 1611.83 513.466Z" fill="#181818"/>
<path d="M1709 513.466C1712.02 513.466 1714.47 511.019 1714.47 508C1714.47 504.981 1712.02 502.534 1709 502.534C1705.98 502.534 1703.53 504.981 1703.53 508C1703.53 511.019 1705.98 513.466 1709 513.466Z" fill="#202020"/>
<path d="M57.1661 610.632C60.1846 610.632 62.6317 608.185 62.6317 605.167C62.6317 602.148 60.1846 599.701 57.1661 599.701C54.1475 599.701 51.7004 602.148 51.7004 605.167C51.7004 608.185 54.1475 610.632 57.1661 610.632Z" fill="#202020"/>
<path d="M154.333 610.632C157.351 610.632 159.798 608.185 159.798 605.167C159.798 602.148 157.351 599.701 154.333 599.701C151.314 599.701 148.867 602.148 148.867 605.167C148.867 608.185 151.314 610.632 154.333 610.632Z" fill="#181818"/>
<path d="M251.5 610.632C254.519 610.632 256.966 608.185 256.966 605.167C256.966 602.148 254.519 599.701 251.5 599.701C248.482 599.701 246.035 602.148 246.035 605.167C246.035 608.185 248.482 610.632 251.5 610.632Z" fill="#202020"/>
<path d="M348.667 610.632C351.685 610.632 354.132 608.185 354.132 605.167C354.132 602.148 351.685 599.701 348.667 599.701C345.648 599.701 343.201 602.148 343.201 605.167C343.201 608.185 345.648 610.632 348.667 610.632Z" fill="#181818"/>
<path d="M445.833 610.632C448.852 610.632 451.299 608.185 451.299 605.167C451.299 602.148 448.852 599.701 445.833 599.701C442.815 599.701 440.368 602.148 440.368 605.167C440.368 608.185 442.815 610.632 445.833 610.632Z" fill="#202020"/>
<path d="M542.999 610.632C546.018 610.632 548.465 608.185 548.465 605.167C548.465 602.148 546.018 599.701 542.999 599.701C539.981 599.701 537.534 602.148 537.534 605.167C537.534 608.185 539.981 610.632 542.999 610.632Z" fill="#181818"/>
<path d="M640.167 610.632C643.186 610.632 645.633 608.185 645.633 605.167C645.633 602.148 643.186 599.701 640.167 599.701C637.148 599.701 634.701 602.148 634.701 605.167C634.701 608.185 637.148 610.632 640.167 610.632Z" fill="#202020"/>
<path d="M737.333 610.632C740.352 610.632 742.799 608.185 742.799 605.167C742.799 602.148 740.352 599.701 737.333 599.701C734.315 599.701 731.868 602.148 731.868 605.167C731.868 608.185 734.315 610.632 737.333 610.632Z" fill="#181818"/>
<path d="M834.5 610.632C837.518 610.632 839.965 608.185 839.965 605.167C839.965 602.148 837.518 599.701 834.5 599.701C831.481 599.701 829.034 602.148 829.034 605.167C829.034 608.185 831.481 610.632 834.5 610.632Z" fill="#202020"/>
<path d="M931.666 610.632C934.685 610.632 937.132 608.185 937.132 605.167C937.132 602.148 934.685 599.701 931.666 599.701C928.647 599.701 926.2 602.148 926.2 605.167C926.2 608.185 928.647 610.632 931.666 610.632Z" fill="#181818"/>
<path d="M1028.83 610.632C1031.85 610.632 1034.3 608.185 1034.3 605.167C1034.3 602.148 1031.85 599.701 1028.83 599.701C1025.81 599.701 1023.37 602.148 1023.37 605.167C1023.37 608.185 1025.81 610.632 1028.83 610.632Z" fill="#202020"/>
<path d="M1126 610.632C1129.02 610.632 1131.47 608.185 1131.47 605.167C1131.47 602.148 1129.02 599.701 1126 599.701C1122.98 599.701 1120.53 602.148 1120.53 605.167C1120.53 608.185 1122.98 610.632 1126 610.632Z" fill="#181818"/>
<path d="M1223.17 610.632C1226.19 610.632 1228.63 608.185 1228.63 605.167C1228.63 602.148 1226.19 599.701 1223.17 599.701C1220.15 599.701 1217.7 602.148 1217.7 605.167C1217.7 608.185 1220.15 610.632 1223.17 610.632Z" fill="#202020"/>
<path d="M1320.33 610.632C1323.35 610.632 1325.8 608.185 1325.8 605.167C1325.8 602.148 1323.35 599.701 1320.33 599.701C1317.31 599.701 1314.87 602.148 1314.87 605.167C1314.87 608.185 1317.31 610.632 1320.33 610.632Z" fill="#181818"/>
<path d="M1417.5 610.632C1420.52 610.632 1422.96 608.185 1422.96 605.167C1422.96 602.148 1420.52 599.701 1417.5 599.701C1414.48 599.701 1412.03 602.148 1412.03 605.167C1412.03 608.185 1414.48 610.632 1417.5 610.632Z" fill="#202020"/>
<path d="M1514.67 610.632C1517.69 610.632 1520.13 608.185 1520.13 605.167C1520.13 602.148 1517.69 599.701 1514.67 599.701C1511.65 599.701 1509.2 602.148 1509.2 605.167C1509.2 608.185 1511.65 610.632 1514.67 610.632Z" fill="#181818"/>
<path d="M1611.83 610.632C1614.85 610.632 1617.3 608.185 1617.3 605.167C1617.3 602.148 1614.85 599.701 1611.83 599.701C1608.81 599.701 1606.37 602.148 1606.37 605.167C1606.37 608.185 1608.81 610.632 1611.83 610.632Z" fill="#202020"/>
<path d="M1709 610.632C1712.02 610.632 1714.47 608.185 1714.47 605.167C1714.47 602.148 1712.02 599.701 1709 599.701C1705.98 599.701 1703.53 602.148 1703.53 605.167C1703.53 608.185 1705.98 610.632 1709 610.632Z" fill="#181818"/>
<path d="M57.1661 707.799C60.1846 707.799 62.6317 705.352 62.6317 702.333C62.6317 699.315 60.1846 696.868 57.1661 696.868C54.1475 696.868 51.7004 699.315 51.7004 702.333C51.7004 705.352 54.1475 707.799 57.1661 707.799Z" fill="#181818"/>
<path d="M154.333 707.799C157.351 707.799 159.798 705.352 159.798 702.333C159.798 699.315 157.351 696.868 154.333 696.868C151.314 696.868 148.867 699.315 148.867 702.333C148.867 705.352 151.314 707.799 154.333 707.799Z" fill="#202020"/>
<path d="M251.5 707.799C254.519 707.799 256.966 705.352 256.966 702.333C256.966 699.315 254.519 696.868 251.5 696.868C248.482 696.868 246.035 699.315 246.035 702.333C246.035 705.352 248.482 707.799 251.5 707.799Z" fill="#181818"/>
<path d="M348.667 707.799C351.685 707.799 354.132 705.352 354.132 702.333C354.132 699.315 351.685 696.868 348.667 696.868C345.648 696.868 343.201 699.315 343.201 702.333C343.201 705.352 345.648 707.799 348.667 707.799Z" fill="#202020"/>
<path d="M445.833 707.799C448.852 707.799 451.299 705.352 451.299 702.333C451.299 699.315 448.852 696.868 445.833 696.868C442.815 696.868 440.368 699.315 440.368 702.333C440.368 705.352 442.815 707.799 445.833 707.799Z" fill="#181818"/>
<path d="M542.999 707.799C546.018 707.799 548.465 705.352 548.465 702.333C548.465 699.315 546.018 696.868 542.999 696.868C539.981 696.868 537.534 699.315 537.534 702.333C537.534 705.352 539.981 707.799 542.999 707.799Z" fill="#202020"/>
<path d="M640.167 707.799C643.186 707.799 645.633 705.352 645.633 702.333C645.633 699.315 643.186 696.868 640.167 696.868C637.148 696.868 634.701 699.315 634.701 702.333C634.701 705.352 637.148 707.799 640.167 707.799Z" fill="#181818"/>
<path d="M737.333 707.799C740.352 707.799 742.799 705.352 742.799 702.333C742.799 699.315 740.352 696.868 737.333 696.868C734.315 696.868 731.868 699.315 731.868 702.333C731.868 705.352 734.315 707.799 737.333 707.799Z" fill="#202020"/>
<path d="M834.5 707.799C837.518 707.799 839.965 705.352 839.965 702.333C839.965 699.315 837.518 696.868 834.5 696.868C831.481 696.868 829.034 699.315 829.034 702.333C829.034 705.352 831.481 707.799 834.5 707.799Z" fill="#181818"/>
<path d="M931.666 707.799C934.685 707.799 937.132 705.352 937.132 702.333C937.132 699.315 934.685 696.868 931.666 696.868C928.647 696.868 926.2 699.315 926.2 702.333C926.2 705.352 928.647 707.799 931.666 707.799Z" fill="#202020"/>
<path d="M1028.83 707.799C1031.85 707.799 1034.3 705.352 1034.3 702.333C1034.3 699.315 1031.85 696.868 1028.83 696.868C1025.81 696.868 1023.37 699.315 1023.37 702.333C1023.37 705.352 1025.81 707.799 1028.83 707.799Z" fill="#181818"/>
<path d="M1126 707.799C1129.02 707.799 1131.47 705.352 1131.47 702.333C1131.47 699.315 1129.02 696.868 1126 696.868C1122.98 696.868 1120.53 699.315 1120.53 702.333C1120.53 705.352 1122.98 707.799 1126 707.799Z" fill="#202020"/>
<path d="M1223.17 707.799C1226.19 707.799 1228.63 705.352 1228.63 702.333C1228.63 699.315 1226.19 696.868 1223.17 696.868C1220.15 696.868 1217.7 699.315 1217.7 702.333C1217.7 705.352 1220.15 707.799 1223.17 707.799Z" fill="#181818"/>
<path d="M1320.33 707.799C1323.35 707.799 1325.8 705.352 1325.8 702.333C1325.8 699.315 1323.35 696.868 1320.33 696.868C1317.31 696.868 1314.87 699.315 1314.87 702.333C1314.87 705.352 1317.31 707.799 1320.33 707.799Z" fill="#202020"/>
<path d="M1417.5 707.799C1420.52 707.799 1422.96 705.352 1422.96 702.333C1422.96 699.315 1420.52 696.868 1417.5 696.868C1414.48 696.868 1412.03 699.315 1412.03 702.333C1412.03 705.352 1414.48 707.799 1417.5 707.799Z" fill="#181818"/>
<path d="M1514.67 707.799C1517.69 707.799 1520.13 705.352 1520.13 702.333C1520.13 699.315 1517.69 696.868 1514.67 696.868C1511.65 696.868 1509.2 699.315 1509.2 702.333C1509.2 705.352 1511.65 707.799 1514.67 707.799Z" fill="#202020"/>
<path d="M1611.83 707.799C1614.85 707.799 1617.3 705.352 1617.3 702.333C1617.3 699.315 1614.85 696.868 1611.83 696.868C1608.81 696.868 1606.37 699.315 1606.37 702.333C1606.37 705.352 1608.81 707.799 1611.83 707.799Z" fill="#181818"/>
<path d="M1709 707.799C1712.02 707.799 1714.47 705.352 1714.47 702.333C1714.47 699.315 1712.02 696.868 1709 696.868C1705.98 696.868 1703.53 699.315 1703.53 702.333C1703.53 705.352 1705.98 707.799 1709 707.799Z" fill="#202020"/>
<path d="M57.1661 804.966C60.1846 804.966 62.6317 802.519 62.6317 799.5C62.6317 796.481 60.1846 794.034 57.1661 794.034C54.1475 794.034 51.7004 796.481 51.7004 799.5C51.7004 802.519 54.1475 804.966 57.1661 804.966Z" fill="#202020"/>
<path d="M154.333 804.966C157.351 804.966 159.798 802.519 159.798 799.5C159.798 796.481 157.351 794.034 154.333 794.034C151.314 794.034 148.867 796.481 148.867 799.5C148.867 802.519 151.314 804.966 154.333 804.966Z" fill="#181818"/>
<path d="M251.5 804.966C254.519 804.966 256.966 802.519 256.966 799.5C256.966 796.481 254.519 794.034 251.5 794.034C248.482 794.034 246.035 796.481 246.035 799.5C246.035 802.519 248.482 804.966 251.5 804.966Z" fill="#202020"/>
<path d="M348.667 804.966C351.685 804.966 354.132 802.519 354.132 799.5C354.132 796.481 351.685 794.034 348.667 794.034C345.648 794.034 343.201 796.481 343.201 799.5C343.201 802.519 345.648 804.966 348.667 804.966Z" fill="#181818"/>
<path d="M445.833 804.966C448.852 804.966 451.299 802.519 451.299 799.5C451.299 796.481 448.852 794.034 445.833 794.034C442.815 794.034 440.368 796.481 440.368 799.5C440.368 802.519 442.815 804.966 445.833 804.966Z" fill="#202020"/>
<path d="M542.999 804.966C546.018 804.966 548.465 802.519 548.465 799.5C548.465 796.481 546.018 794.034 542.999 794.034C539.981 794.034 537.534 796.481 537.534 799.5C537.534 802.519 539.981 804.966 542.999 804.966Z" fill="#181818"/>
<path d="M640.167 804.966C643.186 804.966 645.633 802.519 645.633 799.5C645.633 796.481 643.186 794.034 640.167 794.034C637.148 794.034 634.701 796.481 634.701 799.5C634.701 802.519 637.148 804.966 640.167 804.966Z" fill="#202020"/>
<path d="M737.333 804.966C740.352 804.966 742.799 802.519 742.799 799.5C742.799 796.481 740.352 794.034 737.333 794.034C734.315 794.034 731.868 796.481 731.868 799.5C731.868 802.519 734.315 804.966 737.333 804.966Z" fill="#181818"/>
<path d="M834.5 804.966C837.518 804.966 839.965 802.519 839.965 799.5C839.965 796.481 837.518 794.034 834.5 794.034C831.481 794.034 829.034 796.481 829.034 799.5C829.034 802.519 831.481 804.966 834.5 804.966Z" fill="#202020"/>
<path d="M931.666 804.966C934.685 804.966 937.132 802.519 937.132 799.5C937.132 796.481 934.685 794.034 931.666 794.034C928.647 794.034 926.2 796.481 926.2 799.5C926.2 802.519 928.647 804.966 931.666 804.966Z" fill="#181818"/>
<path d="M1028.83 804.966C1031.85 804.966 1034.3 802.519 1034.3 799.5C1034.3 796.481 1031.85 794.034 1028.83 794.034C1025.81 794.034 1023.37 796.481 1023.37 799.5C1023.37 802.519 1025.81 804.966 1028.83 804.966Z" fill="#202020"/>
<path d="M1126 804.966C1129.02 804.966 1131.47 802.519 1131.47 799.5C1131.47 796.481 1129.02 794.034 1126 794.034C1122.98 794.034 1120.53 796.481 1120.53 799.5C1120.53 802.519 1122.98 804.966 1126 804.966Z" fill="#181818"/>
<path d="M1223.17 804.966C1226.19 804.966 1228.63 802.519 1228.63 799.5C1228.63 796.481 1226.19 794.034 1223.17 794.034C1220.15 794.034 1217.7 796.481 1217.7 799.5C1217.7 802.519 1220.15 804.966 1223.17 804.966Z" fill="#202020"/>
<path d="M1320.33 804.966C1323.35 804.966 1325.8 802.519 1325.8 799.5C1325.8 796.481 1323.35 794.034 1320.33 794.034C1317.31 794.034 1314.87 796.481 1314.87 799.5C1314.87 802.519 1317.31 804.966 1320.33 804.966Z" fill="#181818"/>
<path d="M1417.5 804.966C1420.52 804.966 1422.96 802.519 1422.96 799.5C1422.96 796.481 1420.52 794.034 1417.5 794.034C1414.48 794.034 1412.03 796.481 1412.03 799.5C1412.03 802.519 1414.48 804.966 1417.5 804.966Z" fill="#202020"/>
<path d="M1514.67 804.966C1517.69 804.966 1520.13 802.519 1520.13 799.5C1520.13 796.481 1517.69 794.034 1514.67 794.034C1511.65 794.034 1509.2 796.481 1509.2 799.5C1509.2 802.519 1511.65 804.966 1514.67 804.966Z" fill="#181818"/>
<path d="M1611.83 804.966C1614.85 804.966 1617.3 802.519 1617.3 799.5C1617.3 796.481 1614.85 794.034 1611.83 794.034C1608.81 794.034 1606.37 796.481 1606.37 799.5C1606.37 802.519 1608.81 804.966 1611.83 804.966Z" fill="#202020"/>
<path d="M1709 804.966C1712.02 804.966 1714.47 802.519 1714.47 799.5C1714.47 796.481 1712.02 794.034 1709 794.034C1705.98 794.034 1703.53 796.481 1703.53 799.5C1703.53 802.519 1705.98 804.966 1709 804.966Z" fill="#181818"/>
<path d="M57.1661 902.132C60.1846 902.132 62.6317 899.685 62.6317 896.667C62.6317 893.648 60.1846 891.201 57.1661 891.201C54.1475 891.201 51.7004 893.648 51.7004 896.667C51.7004 899.685 54.1475 902.132 57.1661 902.132Z" fill="#181818"/>
<path d="M154.333 902.132C157.351 902.132 159.798 899.685 159.798 896.667C159.798 893.648 157.351 891.201 154.333 891.201C151.314 891.201 148.867 893.648 148.867 896.667C148.867 899.685 151.314 902.132 154.333 902.132Z" fill="#202020"/>
<path d="M251.5 902.132C254.519 902.132 256.966 899.685 256.966 896.667C256.966 893.648 254.519 891.201 251.5 891.201C248.482 891.201 246.035 893.648 246.035 896.667C246.035 899.685 248.482 902.132 251.5 902.132Z" fill="#181818"/>
<path d="M348.667 902.132C351.685 902.132 354.132 899.685 354.132 896.667C354.132 893.648 351.685 891.201 348.667 891.201C345.648 891.201 343.201 893.648 343.201 896.667C343.201 899.685 345.648 902.132 348.667 902.132Z" fill="#202020"/>
<path d="M445.833 902.132C448.852 902.132 451.299 899.685 451.299 896.667C451.299 893.648 448.852 891.201 445.833 891.201C442.815 891.201 440.368 893.648 440.368 896.667C440.368 899.685 442.815 902.132 445.833 902.132Z" fill="#181818"/>
<path d="M542.999 902.132C546.018 902.132 548.465 899.685 548.465 896.667C548.465 893.648 546.018 891.201 542.999 891.201C539.981 891.201 537.534 893.648 537.534 896.667C537.534 899.685 539.981 902.132 542.999 902.132Z" fill="#202020"/>
<path d="M640.167 902.132C643.186 902.132 645.633 899.685 645.633 896.667C645.633 893.648 643.186 891.201 640.167 891.201C637.148 891.201 634.701 893.648 634.701 896.667C634.701 899.685 637.148 902.132 640.167 902.132Z" fill="#181818"/>
<path d="M737.333 902.132C740.352 902.132 742.799 899.685 742.799 896.667C742.799 893.648 740.352 891.201 737.333 891.201C734.315 891.201 731.868 893.648 731.868 896.667C731.868 899.685 734.315 902.132 737.333 902.132Z" fill="#202020"/>
<path d="M834.5 902.132C837.518 902.132 839.965 899.685 839.965 896.667C839.965 893.648 837.518 891.201 834.5 891.201C831.481 891.201 829.034 893.648 829.034 896.667C829.034 899.685 831.481 902.132 834.5 902.132Z" fill="#181818"/>
<path d="M931.666 902.132C934.685 902.132 937.132 899.685 937.132 896.667C937.132 893.648 934.685 891.201 931.666 891.201C928.647 891.201 926.2 893.648 926.2 896.667C926.2 899.685 928.647 902.132 931.666 902.132Z" fill="#202020"/>
<path d="M1028.83 902.132C1031.85 902.132 1034.3 899.685 1034.3 896.667C1034.3 893.648 1031.85 891.201 1028.83 891.201C1025.81 891.201 1023.37 893.648 1023.37 896.667C1023.37 899.685 1025.81 902.132 1028.83 902.132Z" fill="#181818"/>
<path d="M1126 902.132C1129.02 902.132 1131.47 899.685 1131.47 896.667C1131.47 893.648 1129.02 891.201 1126 891.201C1122.98 891.201 1120.53 893.648 1120.53 896.667C1120.53 899.685 1122.98 902.132 1126 902.132Z" fill="#202020"/>
<path d="M1223.17 902.132C1226.19 902.132 1228.63 899.685 1228.63 896.667C1228.63 893.648 1226.19 891.201 1223.17 891.201C1220.15 891.201 1217.7 893.648 1217.7 896.667C1217.7 899.685 1220.15 902.132 1223.17 902.132Z" fill="#181818"/>
<path d="M1320.33 902.132C1323.35 902.132 1325.8 899.685 1325.8 896.667C1325.8 893.648 1323.35 891.201 1320.33 891.201C1317.31 891.201 1314.87 893.648 1314.87 896.667C1314.87 899.685 1317.31 902.132 1320.33 902.132Z" fill="#202020"/>
<path d="M1417.5 902.132C1420.52 902.132 1422.96 899.685 1422.96 896.667C1422.96 893.648 1420.52 891.201 1417.5 891.201C1414.48 891.201 1412.03 893.648 1412.03 896.667C1412.03 899.685 1414.48 902.132 1417.5 902.132Z" fill="#181818"/>
<path d="M1514.67 902.132C1517.69 902.132 1520.13 899.685 1520.13 896.667C1520.13 893.648 1517.69 891.201 1514.67 891.201C1511.65 891.201 1509.2 893.648 1509.2 896.667C1509.2 899.685 1511.65 902.132 1514.67 902.132Z" fill="#202020"/>
<path d="M1611.83 902.132C1614.85 902.132 1617.3 899.685 1617.3 896.667C1617.3 893.648 1614.85 891.201 1611.83 891.201C1608.81 891.201 1606.37 893.648 1606.37 896.667C1606.37 899.685 1608.81 902.132 1611.83 902.132Z" fill="#181818"/>
<path d="M1709 902.132C1712.02 902.132 1714.47 899.685 1714.47 896.667C1714.47 893.648 1712.02 891.201 1709 891.201C1705.98 891.201 1703.53 893.648 1703.53 896.667C1703.53 899.685 1705.98 902.132 1709 902.132Z" fill="#202020"/>
<path d="M57.1661 999.299C60.1846 999.299 62.6317 996.852 62.6317 993.833C62.6317 990.815 60.1846 988.368 57.1661 988.368C54.1475 988.368 51.7004 990.815 51.7004 993.833C51.7004 996.852 54.1475 999.299 57.1661 999.299Z" fill="#202020"/>
<path d="M154.333 999.299C157.351 999.299 159.798 996.852 159.798 993.833C159.798 990.815 157.351 988.368 154.333 988.368C151.314 988.368 148.867 990.815 148.867 993.833C148.867 996.852 151.314 999.299 154.333 999.299Z" fill="#181818"/>
<path d="M251.5 999.299C254.519 999.299 256.966 996.852 256.966 993.833C256.966 990.815 254.519 988.368 251.5 988.368C248.482 988.368 246.035 990.815 246.035 993.833C246.035 996.852 248.482 999.299 251.5 999.299Z" fill="#202020"/>
<path d="M348.667 999.299C351.685 999.299 354.132 996.852 354.132 993.833C354.132 990.815 351.685 988.368 348.667 988.368C345.648 988.368 343.201 990.815 343.201 993.833C343.201 996.852 345.648 999.299 348.667 999.299Z" fill="#181818"/>
<path d="M445.833 999.299C448.852 999.299 451.299 996.852 451.299 993.833C451.299 990.815 448.852 988.368 445.833 988.368C442.815 988.368 440.368 990.815 440.368 993.833C440.368 996.852 442.815 999.299 445.833 999.299Z" fill="#202020"/>
<path d="M542.999 999.299C546.018 999.299 548.465 996.852 548.465 993.833C548.465 990.815 546.018 988.368 542.999 988.368C539.981 988.368 537.534 990.815 537.534 993.833C537.534 996.852 539.981 999.299 542.999 999.299Z" fill="#181818"/>
<path d="M640.167 999.299C643.186 999.299 645.633 996.852 645.633 993.833C645.633 990.815 643.186 988.368 640.167 988.368C637.148 988.368 634.701 990.815 634.701 993.833C634.701 996.852 637.148 999.299 640.167 999.299Z" fill="#202020"/>
<path d="M737.333 999.299C740.352 999.299 742.799 996.852 742.799 993.833C742.799 990.815 740.352 988.368 737.333 988.368C734.315 988.368 731.868 990.815 731.868 993.833C731.868 996.852 734.315 999.299 737.333 999.299Z" fill="#181818"/>
<path d="M834.5 999.299C837.518 999.299 839.965 996.852 839.965 993.833C839.965 990.815 837.518 988.368 834.5 988.368C831.481 988.368 829.034 990.815 829.034 993.833C829.034 996.852 831.481 999.299 834.5 999.299Z" fill="#202020"/>
<path d="M931.666 999.299C934.685 999.299 937.132 996.852 937.132 993.833C937.132 990.815 934.685 988.368 931.666 988.368C928.647 988.368 926.2 990.815 926.2 993.833C926.2 996.852 928.647 999.299 931.666 999.299Z" fill="#181818"/>
<path d="M1028.83 999.299C1031.85 999.299 1034.3 996.852 1034.3 993.833C1034.3 990.815 1031.85 988.368 1028.83 988.368C1025.81 988.368 1023.37 990.815 1023.37 993.833C1023.37 996.852 1025.81 999.299 1028.83 999.299Z" fill="#202020"/>
<path d="M1126 999.299C1129.02 999.299 1131.47 996.852 1131.47 993.833C1131.47 990.815 1129.02 988.368 1126 988.368C1122.98 988.368 1120.53 990.815 1120.53 993.833C1120.53 996.852 1122.98 999.299 1126 999.299Z" fill="#181818"/>
<path d="M1223.17 999.299C1226.19 999.299 1228.63 996.852 1228.63 993.833C1228.63 990.815 1226.19 988.368 1223.17 988.368C1220.15 988.368 1217.7 990.815 1217.7 993.833C1217.7 996.852 1220.15 999.299 1223.17 999.299Z" fill="#202020"/>
<path d="M1320.33 999.299C1323.35 999.299 1325.8 996.852 1325.8 993.833C1325.8 990.815 1323.35 988.368 1320.33 988.368C1317.31 988.368 1314.87 990.815 1314.87 993.833C1314.87 996.852 1317.31 999.299 1320.33 999.299Z" fill="#181818"/>
<path d="M1417.5 999.299C1420.52 999.299 1422.96 996.852 1422.96 993.833C1422.96 990.815 1420.52 988.368 1417.5 988.368C1414.48 988.368 1412.03 990.815 1412.03 993.833C1412.03 996.852 1414.48 999.299 1417.5 999.299Z" fill="#202020"/>
<path d="M1514.67 999.299C1517.69 999.299 1520.13 996.852 1520.13 993.833C1520.13 990.815 1517.69 988.368 1514.67 988.368C1511.65 988.368 1509.2 990.815 1509.2 993.833C1509.2 996.852 1511.65 999.299 1514.67 999.299Z" fill="#181818"/>
<path d="M1611.83 999.299C1614.85 999.299 1617.3 996.852 1617.3 993.833C1617.3 990.815 1614.85 988.368 1611.83 988.368C1608.81 988.368 1606.37 990.815 1606.37 993.833C1606.37 996.852 1608.81 999.299 1611.83 999.299Z" fill="#202020"/>
<path d="M1709 999.299C1712.02 999.299 1714.47 996.852 1714.47 993.833C1714.47 990.815 1712.02 988.368 1709 988.368C1705.98 988.368 1703.53 990.815 1703.53 993.833C1703.53 996.852 1705.98 999.299 1709 999.299Z" fill="#181818"/>
<path d="M57.1661 1096.47C60.1846 1096.47 62.6317 1094.02 62.6317 1091C62.6317 1087.98 60.1846 1085.53 57.1661 1085.53C54.1475 1085.53 51.7004 1087.98 51.7004 1091C51.7004 1094.02 54.1475 1096.47 57.1661 1096.47Z" fill="#181818"/>
<path d="M154.333 1096.47C157.351 1096.47 159.798 1094.02 159.798 1091C159.798 1087.98 157.351 1085.53 154.333 1085.53C151.314 1085.53 148.867 1087.98 148.867 1091C148.867 1094.02 151.314 1096.47 154.333 1096.47Z" fill="#202020"/>
<path d="M251.5 1096.47C254.519 1096.47 256.966 1094.02 256.966 1091C256.966 1087.98 254.519 1085.53 251.5 1085.53C248.482 1085.53 246.035 1087.98 246.035 1091C246.035 1094.02 248.482 1096.47 251.5 1096.47Z" fill="#181818"/>
<path d="M348.667 1096.47C351.685 1096.47 354.132 1094.02 354.132 1091C354.132 1087.98 351.685 1085.53 348.667 1085.53C345.648 1085.53 343.201 1087.98 343.201 1091C343.201 1094.02 345.648 1096.47 348.667 1096.47Z" fill="#202020"/>
<path d="M445.833 1096.47C448.852 1096.47 451.299 1094.02 451.299 1091C451.299 1087.98 448.852 1085.53 445.833 1085.53C442.815 1085.53 440.368 1087.98 440.368 1091C440.368 1094.02 442.815 1096.47 445.833 1096.47Z" fill="#181818"/>
<path d="M542.999 1096.47C546.018 1096.47 548.465 1094.02 548.465 1091C548.465 1087.98 546.018 1085.53 542.999 1085.53C539.981 1085.53 537.534 1087.98 537.534 1091C537.534 1094.02 539.981 1096.47 542.999 1096.47Z" fill="#202020"/>
<path d="M640.167 1096.47C643.186 1096.47 645.633 1094.02 645.633 1091C645.633 1087.98 643.186 1085.53 640.167 1085.53C637.148 1085.53 634.701 1087.98 634.701 1091C634.701 1094.02 637.148 1096.47 640.167 1096.47Z" fill="#181818"/>
<path d="M737.333 1096.47C740.352 1096.47 742.799 1094.02 742.799 1091C742.799 1087.98 740.352 1085.53 737.333 1085.53C734.315 1085.53 731.868 1087.98 731.868 1091C731.868 1094.02 734.315 1096.47 737.333 1096.47Z" fill="#202020"/>
<path d="M834.5 1096.47C837.518 1096.47 839.965 1094.02 839.965 1091C839.965 1087.98 837.518 1085.53 834.5 1085.53C831.481 1085.53 829.034 1087.98 829.034 1091C829.034 1094.02 831.481 1096.47 834.5 1096.47Z" fill="#181818"/>
<path d="M931.666 1096.47C934.685 1096.47 937.132 1094.02 937.132 1091C937.132 1087.98 934.685 1085.53 931.666 1085.53C928.647 1085.53 926.2 1087.98 926.2 1091C926.2 1094.02 928.647 1096.47 931.666 1096.47Z" fill="#202020"/>
<path d="M1028.83 1096.47C1031.85 1096.47 1034.3 1094.02 1034.3 1091C1034.3 1087.98 1031.85 1085.53 1028.83 1085.53C1025.81 1085.53 1023.37 1087.98 1023.37 1091C1023.37 1094.02 1025.81 1096.47 1028.83 1096.47Z" fill="#181818"/>
<path d="M1126 1096.47C1129.02 1096.47 1131.47 1094.02 1131.47 1091C1131.47 1087.98 1129.02 1085.53 1126 1085.53C1122.98 1085.53 1120.53 1087.98 1120.53 1091C1120.53 1094.02 1122.98 1096.47 1126 1096.47Z" fill="#202020"/>
<path d="M1223.17 1096.47C1226.19 1096.47 1228.63 1094.02 1228.63 1091C1228.63 1087.98 1226.19 1085.53 1223.17 1085.53C1220.15 1085.53 1217.7 1087.98 1217.7 1091C1217.7 1094.02 1220.15 1096.47 1223.17 1096.47Z" fill="#181818"/>
<path d="M1320.33 1096.47C1323.35 1096.47 1325.8 1094.02 1325.8 1091C1325.8 1087.98 1323.35 1085.53 1320.33 1085.53C1317.31 1085.53 1314.87 1087.98 1314.87 1091C1314.87 1094.02 1317.31 1096.47 1320.33 1096.47Z" fill="#202020"/>
<path d="M1417.5 1096.47C1420.52 1096.47 1422.96 1094.02 1422.96 1091C1422.96 1087.98 1420.52 1085.53 1417.5 1085.53C1414.48 1085.53 1412.03 1087.98 1412.03 1091C1412.03 1094.02 1414.48 1096.47 1417.5 1096.47Z" fill="#181818"/>
<path d="M1514.67 1096.47C1517.69 1096.47 1520.13 1094.02 1520.13 1091C1520.13 1087.98 1517.69 1085.53 1514.67 1085.53C1511.65 1085.53 1509.2 1087.98 1509.2 1091C1509.2 1094.02 1511.65 1096.47 1514.67 1096.47Z" fill="#202020"/>
<path d="M1611.83 1096.47C1614.85 1096.47 1617.3 1094.02 1617.3 1091C1617.3 1087.98 1614.85 1085.53 1611.83 1085.53C1608.81 1085.53 1606.37 1087.98 1606.37 1091C1606.37 1094.02 1608.81 1096.47 1611.83 1096.47Z" fill="#181818"/>
<path d="M1709 1096.47C1712.02 1096.47 1714.47 1094.02 1714.47 1091C1714.47 1087.98 1712.02 1085.53 1709 1085.53C1705.98 1085.53 1703.53 1087.98 1703.53 1091C1703.53 1094.02 1705.98 1096.47 1709 1096.47Z" fill="#202020"/>
</g>
<defs>
<clipPath id="clip0_26_1773">
<rect width="1749" height="1749" fill="white" transform="translate(-40 -75)"/>
</clipPath>
</defs>
</svg>
