<svg width="1500" height="479" viewBox="0 0 1500 479" fill="none" xmlns="http://www.w3.org/2000/svg">
<g clip-path="url(#clip0_30_341)">
<mask id="mask0_30_341" style="mask-type:luminance" maskUnits="userSpaceOnUse" x="0" y="0" width="1500" height="479">
<path d="M1500 0H0V479H1500V0Z" fill="white"/>
</mask>
<g mask="url(#mask0_30_341)">
<path d="M1500 0H0V479H1500V0Z" fill="#DAD7CD"/>
</g>
<path d="M1500 164.48C1400 141.899 1200 46.099 1000 51.5733C800 57.0476 700 192.878 500 191.852C300 190.825 100 75.5233 5.72205e-05 46.4412V-15.9999L1500 -15.9999V164.48Z" fill="#A3B18A"/>
<path d="M300 310.888C180 314.651 60 376.579 0 393.002V700.93H1500V257C1440 275.989 1320 337.404 1200 351.945C1080 366.486 1020 325.258 900 329.705C780 334.153 720 377.948 600 374.184C480 370.42 420 307.124 300 310.888Z" fill="#FCFCFC"/>
</g>
<defs>
<clipPath id="clip0_30_341">
<rect width="1500" height="479" fill="white"/>
</clipPath>
</defs>
</svg>
