<svg width="549" height="687" viewBox="0 0 549 687" fill="none" xmlns="http://www.w3.org/2000/svg">
<g clip-path="url(#clip0_26_2259)">
<path opacity="0.65" d="M367.573 343.125H181.427" stroke="#3A5A40" stroke-width="2.57344" stroke-linecap="round"/>
<path opacity="0.82" d="M461.475 356.2L87.5244 330.05" stroke="#3A5A40" stroke-width="2.57344" stroke-linecap="round"/>
<path opacity="0.24" d="M58.3115 312.742L490.689 373.508" stroke="#3A5A40" stroke-width="2.57344" stroke-linecap="round"/>
<path opacity="0.84" d="M-92.5918 265.097L641.592 421.153" stroke="#3A5A40" stroke-width="2.57344" stroke-linecap="round"/>
<path opacity="0.07" d="M343.765 362.986L205.235 323.264" stroke="#3A5A40" stroke-width="2.57344" stroke-linecap="round"/>
<path opacity="0.3" d="M53.2314 262.59L495.769 423.66" stroke="#3A5A40" stroke-width="2.57344" stroke-linecap="round"/>
<path opacity="0.84" d="M89.1665 260.609L459.833 425.641" stroke="#3A5A40" stroke-width="2.57344" stroke-linecap="round"/>
<path opacity="0.33" d="M-46.2603 172.574L595.26 513.676" stroke="#3A5A40" stroke-width="2.57344" stroke-linecap="round"/>
<path d="M286.867 350.853L262.133 335.397" stroke="#3A5A40" stroke-width="2.57344" stroke-linecap="round"/>
<path opacity="0.71" d="M-8.99292 137.155L557.993 549.095" stroke="#3A5A40" stroke-width="2.57344" stroke-linecap="round"/>
<path opacity="0.97" d="M424.324 468.842L124.676 217.408" stroke="#3A5A40" stroke-width="2.57344" stroke-linecap="round"/>
<path opacity="0.56" d="M423.211 486.734L125.789 199.516" stroke="#3A5A40" stroke-width="2.57344" stroke-linecap="round"/>
<path opacity="0.69" d="M210.787 272.365L338.213 413.885" stroke="#3A5A40" stroke-width="2.57344" stroke-linecap="round"/>
<path opacity="0.92" d="M268.691 335.689L280.31 350.561" stroke="#3A5A40" stroke-width="2.57344" stroke-linecap="round"/>
<path opacity="0.67" d="M75.4316 47.9941L473.568 638.256" stroke="#3A5A40" stroke-width="2.57344" stroke-linecap="round"/>
<path opacity="0.73" d="M200.943 215.72L348.058 470.53" stroke="#3A5A40" stroke-width="2.57344" stroke-linecap="round"/>
<path opacity="0.81" d="M162.064 112.597L386.937 573.653" stroke="#3A5A40" stroke-width="2.57344" stroke-linecap="round"/>
<path opacity="0.37" d="M278.999 354.26L270.001 331.99" stroke="#3A5A40" stroke-width="2.57344" stroke-linecap="round"/>
<path opacity="0.78" d="M330.299 514.857L218.701 171.393" stroke="#3A5A40" stroke-width="2.57344" stroke-linecap="round"/>
<path opacity="0.21" d="M212.658 95.0901L336.342 591.16" stroke="#3A5A40" stroke-width="2.57344" stroke-linecap="round"/>
<path opacity="0.87" d="M278.82 367.624L270.18 318.626" stroke="#3A5A40" stroke-width="2.57344" stroke-linecap="round"/>
<path opacity="0.19" d="M241.145 25.7669L307.856 660.483" stroke="#3A5A40" stroke-width="2.57344" stroke-linecap="round"/>
<path opacity="0.37" d="M274.739 349.983L274.26 336.267" stroke="#3A5A40" stroke-width="2.57344" stroke-linecap="round"/>
<path opacity="0.29" d="M287.194 -20.3659L261.807 706.616" stroke="#3A5A40" stroke-width="2.57344" stroke-linecap="round"/>
<path opacity="0.79" d="M277.414 315.399L271.586 370.851" stroke="#3A5A40" stroke-width="2.57344" stroke-linecap="round"/>
<path opacity="0.48" d="M268.542 376.916L280.458 309.334" stroke="#3A5A40" stroke-width="2.57344" stroke-linecap="round"/>
<path opacity="0.97" d="M286.122 296.514L262.879 389.736" stroke="#3A5A40" stroke-width="2.57344" stroke-linecap="round"/>
<path opacity="0.08" d="M335.07 156.708L213.929 529.542" stroke="#3A5A40" stroke-width="2.57344" stroke-linecap="round"/>
<path opacity="0.68" d="M290.406 303.755L258.594 382.495" stroke="#3A5A40" stroke-width="2.57344" stroke-linecap="round"/>
<path opacity="0.7" d="M314.737 260.628L234.264 425.622" stroke="#3A5A40" stroke-width="2.57344" stroke-linecap="round"/>
<path d="M192.794 484.645L356.207 201.605" stroke="#3A5A40" stroke-width="2.57344" stroke-linecap="round"/>
<path opacity="0.65" d="M309.756 290.855L239.243 395.395" stroke="#3A5A40" stroke-width="2.57344" stroke-linecap="round"/>
<path opacity="0.33" d="M230.138 399.906L318.862 286.344" stroke="#3A5A40" stroke-width="2.57344" stroke-linecap="round"/>
<path opacity="0.52" d="M328.168 283.521L220.832 402.729" stroke="#3A5A40" stroke-width="2.57344" stroke-linecap="round"/>
<path opacity="0.07" d="M186.878 427.741L362.122 258.509" stroke="#3A5A40" stroke-width="2.57344" stroke-linecap="round"/>
<path opacity="0.41" d="M348.097 281.369L200.902 404.881" stroke="#3A5A40" stroke-width="2.57344" stroke-linecap="round"/>
<path opacity="0.36" d="M230.085 375.394L318.916 310.856" stroke="#3A5A40" stroke-width="2.57344" stroke-linecap="round"/>
<path opacity="0.15" d="M369.435 283.803L179.566 402.447" stroke="#3A5A40" stroke-width="2.57344" stroke-linecap="round"/>
<path opacity="0.09" d="M560.42 191.099L-11.4195 495.151" stroke="#3A5A40" stroke-width="2.57344" stroke-linecap="round"/>
<path opacity="0.95" d="M126.39 409.068L422.61 277.182" stroke="#3A5A40" stroke-width="2.57344" stroke-linecap="round"/>
<path opacity="0.09" d="M106.432 404.297L442.567 281.953" stroke="#3A5A40" stroke-width="2.57344" stroke-linecap="round"/>
<path opacity="0.92" d="M67.1179 402.591L481.883 283.659" stroke="#3A5A40" stroke-width="2.57344" stroke-linecap="round"/>
<path opacity="0.09" d="M106.267 378.884L442.733 307.366" stroke="#3A5A40" stroke-width="2.57344" stroke-linecap="round"/>
<path opacity="0.47" d="M523.818 308.086L25.1823 378.164" stroke="#3A5A40" stroke-width="2.57344" stroke-linecap="round"/>
<path opacity="0.83" d="M226.58 346.476L322.421 339.774" stroke="#3A5A40" stroke-width="2.57344" stroke-linecap="round"/>
<path opacity="0.95" d="M410.893 343.125L138.108 343.125" stroke="#3A5A40" stroke-width="2.57344" stroke-linecap="round"/>
<path opacity="0.81" d="M580.421 364.517L-31.4208 321.733" stroke="#3A5A40" stroke-width="2.57344" stroke-linecap="round"/>
<path opacity="0.89" d="M248.166 339.424L300.833 346.826" stroke="#3A5A40" stroke-width="2.57344" stroke-linecap="round"/>
<path opacity="0.91" d="M326.103 354.094L222.898 332.157" stroke="#3A5A40" stroke-width="2.57344" stroke-linecap="round"/>
<path opacity="0.51" d="M532.182 417.014L16.8182 269.236" stroke="#3A5A40" stroke-width="2.57344" stroke-linecap="round"/>
<path opacity="0.85" d="M457.077 409.578L91.9229 276.672" stroke="#3A5A40" stroke-width="2.57344" stroke-linecap="round"/>
<path opacity="0.17" d="M120.121 274.391L428.879 411.859" stroke="#3A5A40" stroke-width="2.57344" stroke-linecap="round"/>
<path opacity="0.77" d="M495.662 460.719L53.3385 225.531" stroke="#3A5A40" stroke-width="2.57344" stroke-linecap="round"/>
<path opacity="0.73" d="M252.313 329.261L296.688 356.989" stroke="#3A5A40" stroke-width="2.57344" stroke-linecap="round"/>
<path opacity="0.5" d="M129.458 237.745L419.543 448.505" stroke="#3A5A40" stroke-width="2.57344" stroke-linecap="round"/>
<path opacity="0.99" d="M320.499 381.722L228.501 304.528" stroke="#3A5A40" stroke-width="2.57344" stroke-linecap="round"/>
<path opacity="0.12" d="M452.213 514.74L96.7871 171.51" stroke="#3A5A40" stroke-width="2.57344" stroke-linecap="round"/>
<path opacity="0.15" d="M271.917 340.256L277.083 345.994" stroke="#3A5A40" stroke-width="2.57344" stroke-linecap="round"/>
<path opacity="0.44" d="M427.655 539.155L121.344 147.095" stroke="#3A5A40" stroke-width="2.57344" stroke-linecap="round"/>
<path opacity="0.11" d="M192.954 222.228L356.046 464.022" stroke="#3A5A40" stroke-width="2.57344" stroke-linecap="round"/>
<path opacity="0.61" d="M345.913 466.816L203.087 219.434" stroke="#3A5A40" stroke-width="2.57344" stroke-linecap="round"/>
<path opacity="0.68" d="M433.189 668.486L115.811 17.7643" stroke="#3A5A40" stroke-width="2.57344" stroke-linecap="round"/>
<path opacity="0.75" d="M263.575 316.083L285.426 370.167" stroke="#3A5A40" stroke-width="2.57344" stroke-linecap="round"/>
<path opacity="0.47" d="M329.769 513.225L219.231 173.025" stroke="#3A5A40" stroke-width="2.57344" stroke-linecap="round"/>
<path opacity="0.64" d="M318.91 521.244L230.09 165.006" stroke="#3A5A40" stroke-width="2.57344" stroke-linecap="round"/>
<path opacity="0.79" d="M314.644 570.793L234.356 115.457" stroke="#3A5A40" stroke-width="2.57344" stroke-linecap="round"/>
<path opacity="0.53" d="M273.738 335.874L275.262 350.376" stroke="#3A5A40" stroke-width="2.57344" stroke-linecap="round"/>
<path opacity="0.66" d="M282.838 581.88L266.163 104.37" stroke="#3A5A40" stroke-width="2.57344" stroke-linecap="round"/>
<path opacity="0.27" d="M262.345 691.185L286.654 -4.93469" stroke="#3A5A40" stroke-width="2.57344" stroke-linecap="round"/>
<path opacity="0.31" d="M268.762 397.724L280.239 288.526" stroke="#3A5A40" stroke-width="2.57344" stroke-linecap="round"/>
<path opacity="0.67" d="M286.64 274.275L262.36 411.975" stroke="#3A5A40" stroke-width="2.57344" stroke-linecap="round"/>
<path opacity="0.28" d="M279.688 322.317L269.312 363.933" stroke="#3A5A40" stroke-width="2.57344" stroke-linecap="round"/>
<path opacity="0.83" d="M321.154 199.539L227.846 486.711" stroke="#3A5A40" stroke-width="2.57344" stroke-linecap="round"/>
<path opacity="0.48" d="M349.694 157.013L199.306 529.237" stroke="#3A5A40" stroke-width="2.57344" stroke-linecap="round"/>
<path opacity="0.83" d="M113.743 672.726L435.257 13.5238" stroke="#3A5A40" stroke-width="2.57344" stroke-linecap="round"/>
<path opacity="0.47" d="M254.342 378.041L294.659 308.209" stroke="#3A5A40" stroke-width="2.57344" stroke-linecap="round"/>
<path opacity="0.78" d="M368.518 203.738L180.482 482.512" stroke="#3A5A40" stroke-width="2.57344" stroke-linecap="round"/>
<path opacity="0.37" d="M52.4243 627.368L496.575 58.8814" stroke="#3A5A40" stroke-width="2.57344" stroke-linecap="round"/>
<path opacity="0.57" d="M390.446 214.354L158.554 471.896" stroke="#3A5A40" stroke-width="2.57344" stroke-linecap="round"/>
<path opacity="0.28" d="M72.1047 538.576L476.895 147.674" stroke="#3A5A40" stroke-width="2.57344" stroke-linecap="round"/>
<path opacity="0.92" d="M402.967 235.328L146.032 450.922" stroke="#3A5A40" stroke-width="2.57344" stroke-linecap="round"/>
<path opacity="0.65" d="M22.584 526.153L526.417 160.097" stroke="#3A5A40" stroke-width="2.57344" stroke-linecap="round"/>
<path opacity="0.17" d="M165.38 411.311L383.62 274.939" stroke="#3A5A40" stroke-width="2.57344" stroke-linecap="round"/>
<path opacity="0.49" d="M-11.4197 495.151L560.42 191.099" stroke="#3A5A40" stroke-width="2.57344" stroke-linecap="round"/>
<path opacity="0.89" d="M34.3113 450.064L514.689 236.186" stroke="#3A5A40" stroke-width="2.57344" stroke-linecap="round"/>
<path opacity="0.58" d="M77.4136 414.859L471.587 271.391" stroke="#3A5A40" stroke-width="2.57344" stroke-linecap="round"/>
<path opacity="0.8" d="M137.208 382.493L411.793 303.757" stroke="#3A5A40" stroke-width="2.57344" stroke-linecap="round"/>
<path opacity="0.95" d="M140.25 371.661L408.751 314.589" stroke="#3A5A40" stroke-width="2.57344" stroke-linecap="round"/>
</g>
<defs>
<clipPath id="clip0_26_2259">
<rect width="549" height="686.25" fill="white"/>
</clipPath>
</defs>
</svg>
