<svg width="178" height="68" viewBox="0 0 178 68" fill="none" xmlns="http://www.w3.org/2000/svg">
<rect width="178" height="68" rx="34" fill="#202020"/>
<path d="M39.584 45.576C38.4107 45.576 37.216 45.4267 36 45.128C34.784 44.8507 33.7707 44.4773 32.96 44.008L33.12 39.656H33.44L34.432 41.736C34.7307 42.3333 35.0507 42.8667 35.392 43.336C35.7333 43.784 36.2027 44.136 36.8 44.392C37.2267 44.6053 37.632 44.7547 38.016 44.84C38.4213 44.904 38.8693 44.936 39.36 44.936C40.6613 44.936 41.6853 44.584 42.432 43.88C43.2 43.176 43.584 42.2693 43.584 41.16C43.584 40.1147 43.328 39.304 42.816 38.728C42.304 38.1307 41.4827 37.5547 40.352 37L39.04 36.424C37.2053 35.6133 35.7653 34.6853 34.72 33.64C33.696 32.5733 33.184 31.1653 33.184 29.416C33.184 28.1573 33.504 27.0693 34.144 26.152C34.8053 25.2347 35.712 24.5307 36.864 24.04C38.0373 23.5493 39.4027 23.304 40.96 23.304C42.0907 23.304 43.1573 23.4533 44.16 23.752C45.184 24.0507 46.0693 24.456 46.816 24.968L46.624 28.808H46.304L44.992 26.408C44.6293 25.6613 44.2667 25.1387 43.904 24.84C43.5413 24.52 43.1253 24.296 42.656 24.168C42.3787 24.0827 42.1227 24.0293 41.888 24.008C41.6533 23.9653 41.3547 23.944 40.992 23.944C39.904 23.944 38.9867 24.264 38.24 24.904C37.4933 25.5227 37.12 26.3653 37.12 27.432C37.12 28.52 37.408 29.3947 37.984 30.056C38.56 30.696 39.4027 31.272 40.512 31.784L41.984 32.424C44.032 33.32 45.504 34.28 46.4 35.304C47.296 36.3067 47.744 37.608 47.744 39.208C47.744 41.0853 47.0293 42.6213 45.6 43.816C44.192 44.9893 42.1867 45.576 39.584 45.576ZM51.6465 52.68C50.7932 52.68 50.1105 52.4667 49.5985 52.04C49.1078 51.6133 48.8625 51.0693 48.8625 50.408C48.8625 49.8107 49.0758 49.3307 49.5025 48.968C49.9292 48.6053 50.4092 48.424 50.9425 48.424C51.4758 48.424 51.9238 48.5307 52.2865 48.744C52.6492 48.9787 52.9692 49.3093 53.2465 49.736L53.4705 49.992C53.9398 50.632 54.4092 50.6213 54.8785 49.96C55.0705 49.64 55.2838 49.2133 55.5185 48.68C55.7745 48.168 56.0625 47.4747 56.3825 46.6L50.1745 31.752C50.0252 31.3467 49.8652 31.0267 49.6945 30.792C49.5238 30.536 49.2465 30.3227 48.8625 30.152L48.2865 29.928V29.608H56.2545V29.896L55.6145 30.152C55.1452 30.3013 54.8998 30.5467 54.8785 30.888C54.8785 31.208 54.9638 31.6133 55.1345 32.104L58.4625 40.744L61.6305 32.008C61.8012 31.5173 61.8652 31.112 61.8225 30.792C61.7798 30.4507 61.5132 30.216 61.0225 30.088L60.3505 29.928V29.608H64.7985V29.928L64.0945 30.152C63.6038 30.3013 63.2625 30.5147 63.0705 30.792C62.8785 31.0693 62.6972 31.4533 62.5265 31.944L57.3745 45.992C56.5425 48.232 55.7105 49.9067 54.8785 51.016C54.0465 52.1253 52.9692 52.68 51.6465 52.68ZM70.8948 45.48C69.8494 45.48 68.9108 45.352 68.0788 45.096C67.2468 44.8613 66.4787 44.5627 65.7747 44.2L65.8068 40.392H66.1268L67.2148 42.312C67.6841 43.1653 68.1961 43.8053 68.7508 44.232C69.3268 44.6373 70.0521 44.84 70.9268 44.84C71.9508 44.84 72.7721 44.616 73.3908 44.168C74.0308 43.6987 74.3508 43.08 74.3508 42.312C74.3508 41.608 74.1268 41.032 73.6788 40.584C73.2308 40.136 72.3988 39.7307 71.1828 39.368L69.8388 38.952C68.5374 38.568 67.5134 37.9707 66.7668 37.16C66.0201 36.3493 65.6468 35.3573 65.6468 34.184C65.6468 32.776 66.2014 31.5813 67.3108 30.6C68.4201 29.6187 70.0094 29.128 72.0788 29.128C72.9108 29.128 73.6894 29.224 74.4148 29.416C75.1614 29.5867 75.8761 29.8533 76.5588 30.216L76.3668 33.672H76.0468L74.9268 31.688C74.5214 30.984 74.1161 30.4933 73.7108 30.216C73.3268 29.9173 72.7401 29.768 71.9508 29.768C71.2254 29.768 70.5428 29.9707 69.9028 30.376C69.2627 30.7813 68.9427 31.3573 68.9427 32.104C68.9427 32.8293 69.2094 33.4053 69.7428 33.832C70.2974 34.2587 71.1081 34.6533 72.1748 35.016L73.6148 35.432C75.1508 35.9013 76.2494 36.552 76.9108 37.384C77.5721 38.1947 77.9028 39.176 77.9028 40.328C77.9028 41.8853 77.2841 43.1333 76.0468 44.072C74.8308 45.0107 73.1134 45.48 70.8948 45.48ZM82.492 45V44.68L83.804 44.36C84.6787 44.168 85.116 43.6347 85.116 42.76V24.52H82.396C81.6067 24.52 81.0413 24.7333 80.7 25.16C80.3587 25.5653 79.996 26.1307 79.612 26.856L78.46 29.096H78.14L78.3 23.88H96.764L96.892 29.096H96.572L95.42 26.856C95.0573 26.1307 94.7053 25.5653 94.364 25.16C94.0227 24.7333 93.4573 24.52 92.668 24.52H89.948V42.76C89.948 43.6347 90.3853 44.168 91.26 44.36L92.572 44.68V45H82.492ZM103.797 29.128C105.184 29.128 106.368 29.416 107.349 29.992C108.33 30.5467 109.077 31.3147 109.589 32.296C110.122 33.256 110.389 34.3547 110.389 35.592C110.389 35.8267 110.378 36.072 110.357 36.328C110.336 36.5627 110.293 36.776 110.229 36.968H100.693C100.714 39.272 101.12 40.936 101.909 41.96C102.72 42.9627 103.914 43.464 105.493 43.464C106.56 43.464 107.424 43.2933 108.085 42.952C108.746 42.6107 109.365 42.1093 109.941 41.448L110.261 41.736C109.6 42.9093 108.714 43.8267 107.605 44.488C106.517 45.1493 105.205 45.48 103.669 45.48C102.154 45.48 100.81 45.16 99.637 44.52C98.4637 43.8587 97.5463 42.92 96.885 41.704C96.2237 40.488 95.893 39.0373 95.893 37.352C95.893 35.6027 96.277 34.12 97.045 32.904C97.813 31.6667 98.7943 30.728 99.989 30.088C101.205 29.448 102.474 29.128 103.797 29.128ZM103.701 29.768C103.082 29.768 102.549 29.96 102.101 30.344C101.674 30.7067 101.333 31.368 101.077 32.328C100.842 33.2667 100.714 34.6 100.693 36.328H106.165C106.378 34.0027 106.293 32.328 105.909 31.304C105.525 30.28 104.789 29.768 103.701 29.768ZM119.92 45.48C118.469 45.48 117.146 45.1707 115.952 44.552C114.778 43.912 113.84 42.9947 113.136 41.8C112.453 40.584 112.112 39.1013 112.112 37.352C112.112 35.624 112.485 34.152 113.232 32.936C114 31.6987 115.013 30.76 116.272 30.12C117.552 29.4587 118.949 29.128 120.464 29.128C121.701 29.128 122.746 29.3307 123.6 29.736C124.453 30.1413 125.104 30.6747 125.552 31.336C126 31.976 126.224 32.648 126.224 33.352C126.224 33.9493 126.042 34.4187 125.68 34.76C125.317 35.08 124.848 35.24 124.272 35.24C123.653 35.24 123.152 35.016 122.768 34.568C122.384 34.12 122.16 33.5333 122.096 32.808C122.074 32.3387 122.085 31.944 122.128 31.624C122.17 31.2827 122.17 30.9413 122.128 30.6C122.042 30.2373 121.904 30.0027 121.712 29.896C121.541 29.768 121.296 29.704 120.976 29.704C119.674 29.704 118.661 30.2693 117.936 31.4C117.232 32.5307 116.88 34.3333 116.88 36.808C116.88 38.9627 117.274 40.616 118.064 41.768C118.874 42.8987 120.112 43.464 121.776 43.464C122.778 43.464 123.589 43.2827 124.208 42.92C124.826 42.5573 125.424 42.0133 126 41.288L126.32 41.544C125.786 42.8027 124.965 43.7733 123.856 44.456C122.746 45.1387 121.434 45.48 119.92 45.48ZM127.205 45V44.68L127.589 44.552C128.357 44.296 128.741 43.7627 128.741 42.952V25.864C128.741 25.416 128.666 25.0853 128.517 24.872C128.367 24.6587 128.079 24.4987 127.653 24.392L127.173 24.264V23.944L132.805 22.568L133.317 22.856L133.189 27.368V31.368C133.935 30.7493 134.735 30.2267 135.589 29.8C136.463 29.352 137.423 29.128 138.469 29.128C139.855 29.128 140.954 29.5227 141.765 30.312C142.597 31.1013 143.013 32.3173 143.013 33.96V42.984C143.013 43.4107 143.098 43.752 143.269 44.008C143.439 44.264 143.738 44.456 144.165 44.584L144.421 44.68V45H136.933V44.68L137.317 44.584C138.085 44.328 138.469 43.784 138.469 42.952V32.904C138.469 32.0507 138.319 31.464 138.021 31.144C137.743 30.824 137.242 30.664 136.517 30.664C136.047 30.664 135.535 30.76 134.981 30.952C134.426 31.1227 133.861 31.432 133.285 31.88V43.016C133.285 43.848 133.669 44.3813 134.437 44.616L134.693 44.68V45H127.205Z" fill="black"/>
</svg>
